<mxfile host="65bd71144e">
    <diagram id="yzskxScPMQ5tLU1_B2kj" name="Page-1">
        <mxGraphModel dx="1599" dy="475" grid="1" gridSize="10" guides="1" tooltips="1" connect="1" arrows="1" fold="1" page="1" pageScale="1" pageWidth="827" pageHeight="1169" math="0" shadow="0">
            <root>
                <mxCell id="0"/>
                <mxCell id="1" parent="0"/>
                <mxCell id="2" value="" style="shape=image;imageAspect=0;aspect=fixed;verticalLabelPosition=bottom;verticalAlign=top;image=data:image/png,iVBORw0KGgoAAAANSUhEUgAAAuYAAADmCAIAAAAWZNctAAAAAXNSR0IArs4c6QAAIABJREFUeJzsvXmUXGWd/3/3e6tu7dXVe2ePCQkmkACRCEIGQQ1LMOpxkO8M4ldHfwiIcYEAMo7jgnOAEUREBUXGAb6MigiyiUI2BkxYQhICnXRM0nt3VXXtt27d7ffHO3m4dNLBDhWS8nxex5PThs5dn/s87+ez8pFIhCMIgiAIgji2EY72BRAEQRAEQbw9JFkIgiAIgmgASLIQBEEQBNEAkGQhCIIgCKIBIMlCEARBEEQDQJKFIAiCIIgGgCQLQRAEQRANAEkWgiAIgiAaAJIsBEEQBEE0ACRZCIIgCIJoAEiyEARBEATRAJBkIQiCIAiiASDJQhAEQRBEA0CShSAIgiCIBoAkC0EQBEEQDQBJFoIgCIIgGgCSLARBEARBNAAkWQiCIAiCaABIshAEQRAE0QCQZCEIgiAIogEgyUIQBEEQRANAkoUgCIIgiAaAJAtBEARBEA0ASRaCIAiCIBoAkiwEQRAEQTQAJFkIgiAIgmgASLIQBEEQBNEAkGQhCIIgCKIBIMlCEARBEEQDQJKFIAiCIIgGgCQLQRAEQRANAEkWgiAIgiAaAJIsBEEQBEE0ACRZCIIgCIJoAEiyEARBEATRAJBkIQiCIAiiASDJQhAEQRBEA0CShSAIgiCIBoAkC0EQBEEQDQBJFoIgCIIgGgCSLARBEARBNAAkWQiCIAiCaABIshAEQRAE0QCQZCEIgiAIogEgyUIQBEEQRANAkoUgCIIgiAaAJAtBEARBEA0ASRaCIAiCIBoAkiwEQRAEQTQAJFkIgiAIgmgASLIQBEEQBNEAkGQhCIIgCKIBIMlCEARBEEQDQJKFIAiCIIgGQDraFzCefD5/VM7reV6pVAoGgxzHiaJomqYoihzHGYYRDAZFUczn89Fo1LKsYiGXSCarhuE4jq4HOc/jOI5zXU4QbMd2bF4NaLVaTVEUHDabzcbjcc/zXNd1XVdV1Wq1qmma53k8zx+VmyUIgiCOWaLR6NG+hGMUsrLsw3VdnudFURQEgeM4nuclSRJFMRwOi6I4OjoaiURM05QkKZFIjWWzWiAQCATKhVJ6ZAR6hfM8SVbVgGZZliRJlUrFNE2O45LJJI4pyzJEDH6wLKtWqx3t+yYIgiCIxoAkyz4EQYCSsG3bcRyO46rV6rZt215+5dViqRKLJzmezxdKm1560fVcXpA2bXrJsl09EovEE5wk7+3t697Z4zpOT0/Pq6++yvO8IAiKosCOsn379pdeesnzPNhaYL8RBAE/EARBEATxtpBk2QdMLK7rWpbF87yiKOVyed2G9Z/+v595Y+eOmuNarpfP52/4xjcz2Vz/4MCqVV99/vnnOZ6TZLW/d+Dee+99+HePVMrVZ5999s9//nOlUuF5nud527Yrlcr//u//Pvnkk4VCARrFdV3HcXDGo33fBEEQBNEYkGTZh+u6TLjAj6MoSjaTe/Xlzf/vwV+7HlcxzD19/UbNGhpN2y43litwvGg7Hi8I8WSTxwmOx4Ui4WKxODAwAFHieR78QYVCYWhoSBRFSZJ4nvc8z3Ecx3Esyzra900QBEEQjQFJln3AlYMQFkSZKIqiKMpF/+f/vPFG9wMPPBDStUBQ7+jsVBQlmUwFw6FIPMFxvON4sqKIksILgutykUhEEARVVRVFcRxHkiRZlhVFiUajmqZZluV5HrSLKIrQNARBEARBvC0kWfYB4wd+gHuI4zjTNE9ctPjClR+/6ZYf9A9lu6ZOf/GVV5pSzdmxnFE1eUHwBM7heIfjLddzON6oVj3Ps23bdV1JkmzbxkFwWFhWEM4Ccw45hgiCIAjib4Qky5vAU8PzvKqquq4jnEXTtAsvvPCss876+c9/PjAwMHfOvJGREVVVBUEQBNHzOEgQz/MEQXA4z/PeVDyQLK7rappWKBSQSYQMatM0XdfFLxAEQRAE8baQZHkTWZYhPhDXYlmWruu5XE6W5c997nOPPPLIAw880NLSkkwmq9VqqVQyDMOybFHkS6VSOp1GEEylUolGo4FAIJfL6bpu27Zt2/l8XhRFTdNkWU6n04FAgDKGCIIgCGJSkGTZB0qkIDwWmcmVSqVQKHAcpyhcU1PTtddee++99+7s6a5Wq+FwOJ1OP/fcBk2VTNN6/fXXN2zYIIqirqmtrc179+4dGxvTNG1wcHB4eDgcDkciEVmWR0dHq9VqJBLJZDIsb+ho3zdBEARBNAbHXPXbowUCWZDnjIwhQRDi8Xg2n/McrrU5dvy8uXPfM6tcKGTSo/Pnz/vXG75x4/e+179nb0dH29NPPz21s+PKL142PDTS3d39u9/9LhgMCoKQyWQ6Ozs/9alP8Tx/8803Dw0NBYPBQqFg2/Z11123cOFCmHMIgiAIgnhb+EgkcrSv4S0crYL9qKaPIFxIFo7jnl2zTtYCp556CsdxvX2Diiy/+OKLp556aiIecSzvuefWv/baa57nHTd3bmdne1fX1EBA7e3tffrpp4877rh8Po8spAULFlQqlR07dmiaVq1WRVEsFotLly7VdR39AQiCIAiCQQX7J4Iky5tUKhVZlqFXDMMIhUL5YkHRgqVSKRyOyhJv12zTNAVBcFwrGo4g3kWWZaNcCeia53DZbDbRlCyVSuFwuFgshsPhSqXieZ4kSaqq2raNn+F4yufzoVCIwlkIgiAIPyRZJoIcQ2+CiimQLEhIjoYjHsd5WkCVePxCOKx7risIAfyCLEqOXQvommPbtVotkYzxPK9pGsdxgUDAcRxN0wRBcF23Wq2iIWKpVNI0LRAIRKNRqstCEARBEH8jFH67D9g/BEFA4jE6LXMcx3Mc5zn3/fd//8f3v68qkus4ru2USwXHrokCxwucUzM5z93ds/OG667du3evbduoRIeSdKBYLDqO89BDD91///2xWCwQCGQymVwud7RvmiAIgiAaBpIs+4BkgXvI8zxVVVELrlQqBYPBnTt3ZjIZ27ar1aqkiEFdV1TVsizTrMpawLYdXpJv//GdAwMDoigiQgUmFkVRRFGMRCK6ru/YsWP9+vXVatVxnHg8HovFUGWOIAiCIIi3hSTLPuC+QWshnudfffXVX/ziF47jqAHN8dxYIs4JvCTLHs85HsfxoufxgihLslqzHElWJTnQ2jo1Fk9BrAiCgEZCqHuLU4ii2NLSgjJ0qP4CFxJBEARBEG8LSZZ92LYNbaFpWj6ff+WVV77zne/MmzfvtttuW79+vWmasiw7rqMH9Vqt5nFedizPC5IgirKiGlW7ZjnxZNKs2a7LCYIgSRIK3ULBoOgLQRAEQRCHDYXf7kMQBMuyUP02Go1efPHFU6dOrdVq9/+/B2677bZqtbpixYr169cvWLAgHou7nptIxBzHGxvLx2JRjuOq1arrupVKxTRNUeRZxyI0EoLLiSAIgiCIw4aW0jeBXaRYLHqepyjKKaecwvP8Ke9b8uqrr/b19a1bt+6iiy4677zzzj///M7OzlRTS3t7ezwe9TzOcZxAIIBoGE3T9ld14RzHYbV0CYIgCIJ4J5Bk2YdpmpAsuq4LguA4zr7eh5J42vtPcz333HPP/ad/+qcNGzZcffXVwWDwwx9avnDhwhNPPLG1tTUQCEqSVCgUXNctl8uKss8lhFJynudZlqUoytG+RYIgCIJoYEiy7ANmElSK8zzPtm3XdRVFQctlVVEty5o5c+aSJUtWrlw5ODi4bu2GH/7wh7lc7kMf+tC5554vimJ7e3tzc3M4rKOWrmmakCw8z1O9OIIgCIJ4h5Bk2Ydt25AXUBhMZIT0UDqTdoJONBoVBZHjuK6urkQi0dU59fzzz+/u7l6/fv2qVaskSeJ54bnnngsGlkWj4UAggFJyOAj5hgiCIAjiHUKSZR+2bSuKoihKtVqVJMlxHFEUa7Wax3NNySb8juM6lmXxPB+NRPVguKurY/bs2eedd96mTS/t3r375Zdf+c53vvOnp59avPjEpUuXTp8+HT6mo31nBEEQBPH3AC2o+0BlffyATB/UaJFl2eM8/E8QBFVVFUXxOE+SBMfZ5z9atGiRJEkf/ehH77///tNPP/2xxx4766yzrrjiiieffHL79u25XA7OJo7jarUaz/NoFk1qhiAIgiD+dsjKcpgYhjk2Ntbe3up5XE/P7tWrV1911Ze/8IV/mTtn9jnnfHDnzp0bN278/ve/n8vlzj333AULFsyZM0eSpJaWllKppOs6EqpVVSWfEUEQBEH8LZBkOUwCAVVRWmzbrVQqjz/+eDgcfumll3bs2Dl3zqzm5ubOzs4zzzxzxYoV27Zte+ONN2666aZUKqUoyty5c3fs2LFo0SJFUVzXtW1bluWjfSsEQRAE0QDwkUjkaF/DW8jn80f7Et6Cyx282bJRMYNBbWQkbVnWN77xr4ODg4ZRveqqL330wvMcx0HfZs/zUKzljTfeePnll1966aXXX389GAy+//3vP/7440899VSe5wOBwLt+TwRBEMSxSzQaPdqXcIxCkuVtmEiycB7veZwgcN/85re2bn0tHA6Xy5VwOLT6mq/Pnj2zUqlwHIf+iEiZlmV5ZGSkr69vzZo1GzduFARh9erV8+fPf7fvhyAIgji2IckyEeQYOkx4nhsZGc3n8z/96U87OrqmTJlSq1m///3D71/6vmnTpgSDQXRstizLtu1gMOh5nqZpixYtWrRo0fDwcCaTmTdvXjabTSQSR/tWCIIgCKIBICvL2zCRlYXn+ExmrLe39/nnn7dt96GHHvrQhz6cTCb0oHb22Wfpum7bdigUYkVZ0BwR/YYEQahWq5qmIXXoXb8ngiAI4tiFrCwTQVaWw8RxvGQyHolE5s+fXygUHnvssVNPfd/JJ58sibwsi6Zp6rrO8zykCSwuSBSqVCqhUEiW5WKxGA6Hj/Z9EARBEERj0PCSBfVO3jkTJRsL3MH/nhc8zvN4zpUkyXUsq1Y1q5WAtu95qqqKH1DlBX9yHCfLMlKERFGEXqnX9ROHplGSyWk81Bd674SfRhkPxESQV6JeuBznHu1rIAiCIIi/W0iyEARBEATRAJBkIQiCIAiiASDJQhAEQRBEA0CShSAIgiCIBoAkC0EQBEEQDQBJFoIgCIIgGoBjsS5LrVZTFAUVY23bRn9By7I8z6tWq4ZhSJKk67rneZVKRZIOfgsT1TmYqNpspVKRZRlH8zxPlmVN0yRJQoFay7J4nsf/tW0blzcpHMcRRdG2bdu2XddF+yHHcUzTrFarPM+jlIthGJZlSZJ0GB2e0YXRdV2UHxBFURAEx3FkWXZdF2fRNE0QBNThdRzHcRz8piiKHMe5rot/fuTAFXqeJwiCIAjs/8qy7DiO67q4HpRP8DyvXnUUNE0zTdO2bVEU8aJx17Zt40rwa47joGpOXU6KR8pxnG3bnufhFZfLZV3XOY4zTRMNvcfGxgRBQJOHiY4z2eeA8YavwLIsTdNwBJwC9+55nuM47F3U43Yn/O78p8NrFQSB53n8Df6UJAkfoOM4qqq6+/EfZ7LXiScvCIIkSTiRJEmaprEngM9NEASMwzq++omoVqsYhBj8tm2Xy2XDMHRdlyQJE50syzzPW5Y12ftlT5hNApgHeJ4vlUqqqrIvyzTNUChkmqb/rWEk4L1M6rwTjc+JxgOeNvvY2TWjHZsoingyODKY1PWMuwD2p2VZuq6XSqVQKITq5KOjo8lkEs/5wKulOi7HGsecZPE8D4LAMIxAICCKommag4OD6XQay4znebVazXVdTdMCgYBhGAc9zkSf+kRLcjweHx0drdVquq6LoogFXtf1jo4OVVVlWYbUwNx3GPcFiQDRwHFcsVgcHR0tFAqYTzF5CYKAWnOCIKCx4t+O4ziCIGB6wmPE5IVHgZkLswCeAGZwNiPgPx1CjdXr08X7xUvE08DUjD8xSbG7gIKp13mZVJJlWdf1SCQSCoVwMUwb+d9FXc7LVg42RzMJPjQ0VCwW/WIR6yveiLAfXJhlWZM6qSzLlmVBsOKp4i+ZVnBdF9+RJEmqqtZqtYMep14lzjD4/XeEx44vGks4Lgkj2TAM/DIbDOwlTuq84XDYNE3oAGyBMAA0TWtqaopGoxjweLyHsU+YLKzmdbVazWazhmHguxMEoVgsspeCuz6Mhw8FwJ4wDo5H6nleMBjEhBkIBCqVCpuO2KThui7mjSMt3TDkoMkURWGKFqoFP2AmxF0cxjxw0H+C7ysYDBaLxVwud9xxx6VSKTZVEsc+x5xkgcrGBOd5nmEYo6Oj+Xy+q6vLMAxRFCORiKIobMd8eALiQGq1WiKRsG07n897nheLxUzTHBsbGx0dTSQSwWAQmoPZBg7jvtjSlclkhoaGBEFIJBI8z4fDYUmSTNPEco4y/y0tLZM6PiQIZhysf/gOFUXBPlLTNOznMGGZpompDVtbzFCHWBLqJR2wq2MHZEqCvUe2KcQt1Ov9Qqw4jlOtViuVSq1WGx0dTafTs2fPZjswtprW19SE9451EQaecrk8MDCgKEo4HGYvXRAEaHT/NR/2TApVhHbiruuapmmaJswJ7H6ZSuM47jAMh5OC7aTZG8dlYLiKoqgoiuM4lUoF5iiYIdm9MCYrJZlShByp1Wq1Ws3zvIGBAXyMoVAIuvlI2xcBxrNpmn19feVyGeIpHA5jzYZ8xFQDvX4Y1jW/ZQL/HA8fFmt8gPhBkiTszZiU9AvKI/YMODwBv3JlbyoQCLCtBa6f7awmdfyJft+27XQ6rSiKLMv5fH737t1TpkyJRCIkWRqFY06yYFQJggBL/t69eyuVSmtrK/ryYG6F+RSzz0S7gck6hqrVakdHB5pRWZYVCoWw6R8dHbVtu7W1FS6Vd7L/xj8cHR3N5XKWZXV0dDQ3NxcKBfibXNe1LAs741qtxpb2vxHMucxUo6oqc2xhlsR/VRRFUZRgMBgMBi3LwkpWLpff9outl2SJRCIwLSQSCUVRisUi3BaGYciyjMXbtm1IUs/zoLHqgqZpWB5gD8/n84VCoVAoqKqK89bRD3UgbPKFZh0YGJg7d24oFKpWqzDjYceJtqDjlna/pPsbwUYZXwoWQkmSeJ6HKwpbAnxQlUqlXC5P9Jzr9UDYvTAjRyAQkGUZAoJJqEgkAstKuVyGUQSLNz6fw7gYy7JgwoG7gef5QCAgCEJHR0elUhkaGtJ1vb29XVVVnK5eEnkiAoFArVYbGBgoFovRaBRmHjiqyuUy+/zxM57VpI7PJhP2qDFhiqJYLBaZuQLHj8ViwWDQtu1arVapVMYZ+Y7YM+DwuplrxrIsphfxCiDaKpUKc5pPZAWcCL+jh31EHMe1trZOmTIFvrk5c+b09PR0d3cvXLgQ6wi5gY59jjnJAmsBBlyxWISnJplMjo2N6bouCEI2mx0bG7MsC6vvRO7/yTqGOI574403VFVNpVKqqubzeZ7nW1paarVasVjUNK21tVUQBMgptvxM6r6w2R0bGwuHw/F4PBKJjIyMCIKQyWQgGnBkCI5SqTSp4/svie1oXdeFMkD8CiSL4ziFQmF4eJitoP5nMpEErNfHXCqVYE8qFApMhmIChWgzTbNUKvlDLupyXtM0sYQHg8FoNBoMBvF80ul0IpGAj59N9HW0iuOwWANw2Eqlkslkpk+fHggEYAjBcjI8PIz11e8YYovHIcJcDgr6cSJkAeYcWAqLxSKGomEY1WoVjgMWPXYgdVy6/DqM7f6TySRCfOAoZLaWsbExFloBwxuY7NIlSRIOCJeTqqrhcBhTiiAIhUIBA1JVVRjh6nWzE+F5XjqdrlQqyWQymUzCpIq3UCgU4A7GU8LWYrLzANyOUKUQfLC2Tps2TRTFQCDAorUwBvr6+ti/9YuVI714VyqVfD4Pa4eqqmwMKIqCl4VhyUbFZK/Hbzb2W+my2WxHRwdc/+FwuK2tLZfLDQwMdHZ24h/63WpH5taJd8QxJ1nYiCkUCmNjY7FYLBqNmqYZiUR4njcMwzRNTdNaWloikQjzaLxzqtXq6OhosVgsFAqRSITZiru6unbv3l0ulyFWDnsc48vBtxoOhxVFwdYBMwtEDIyiLBT3sE8Ew0m5XIa1BjMCHMOIDSoUCoZhBIPBcDgcDofZFpwZlo8co6OjgUCgWq2m0+lCodDW1gZ9FovFIFngX9d1PbCfupzXtm3DMHK5XLVaLRQKcMaFw+GBgQFs9Y7cJMXsN5IkwTdn2zZ2+QgvqNVq6XTadd22trZkMol/cnhGBQbCyfGc8U4RNFCtVgOBAM/zlUoFnlZstSdqKj7Za3hb6yZ8c6VSqVwuI/ZcFEWYMBHNYBhGqVTq6OiAMYYtV1h+Jvu9w8gEF3OlUoEZo1Qq4aSJRAKXUV8v86FB0kA4HEb0Pe5ucHBQkqRIJBIOhwOBANy1hzEA/Hsq27ar1Wq1WrUsq7+/PxaLsXhbXddN0xweHtY0DW44Xdext/Fryr+dyYbfFovFSqVSLBYNw4CdCQMjGo2Ojo5CcDc1NWFgvEPHpd/K0tPTs2fPnng83tLSUq1WZVlOJpP9/f0dHR1MRrM7ItVyDHLMSRaoB+x6y+UyFq1cLhcMBjOZTC6XUxSltbU1Ho/7dcCBTGRNmWjXqGlaV1dXoVDo7+9Pp9NtbW2iKI6NjbGhjBkTP2PnOqmbQtwrC9GoVCqhUEiSpLGxsVAoFI/H4ZNiZo/JThmmaSI0GCERgUAgmUx6nrd9+3bLsoLBIHSJZVn5fL5YLE6bNg2yieVoYDd2pGNZmpqaEGgJpw9CDiVJqtVqhmEgNlDX9XA4zJaxupwX9hVsZ6vVqiAIoVAoHA6ztBSshcyeXMewX+aS53ketxkMBvP5vGVZqqpCVcD5mEql/P+QWfhZDMTfDmJBBEFIJpOGYYyNjZmmGY1GRVGE/7FWqwWDQQy8Q1gv6vX8keiHUB745jDkdu/ezSIiq9VqPp93HAfLNjQEHp2zn8lKWOZU0nVd07RyuZzJZLLZrOM4LS0tuq4bhoE9/buQK4TvCL4PhNjja4V3Mh6Px+Nx2B2R4ler1SKRyKSOz0JAYJzAsHddt1QqGYZRLpeZYwhaYcaMGSxBDwoPUbH12ipMBMzMwWAwl8vBLQVzC5ISHMdRFCUQCLDN22TH4US5P+95z3u6u7sx2rF/g6Xz8CJmiHefY1GyVCoVxBzwPF8sFuHaYK7uZDKJaCn4FxDxfiATTUATLcnYfYbD4VQqlc/n4b5JJBKlUsm2bUygTElUq9XJShZFUXK5HMLgk8kk9vp79uyZNWtWLBbDml2r1fDdHkYEKJ4DJneW58zzfDweN03TdV248/GtaprGNB/mayyKiAI+6PHrGNOAqEMsz8PDw4ZhTJ061bIswzBc11VVNRQKYcU9jOc8EXi/8Xic5/mxsbFqtYplg0WksoeGi6zXAsa8nMg6RoAUMpXwojOZjGmasK8Ui0XcONvwseVksuMBC4+qqpFIRNd1eB51Xcc3lc1mbdtubm7GMMhms8zUdOD1T+q8E40TXdch1tlqgZBbDDlFUUKhEGwhuq53dXWxs0NJM+/AZJ+Dqsqu69RqlufxeBo4r2GYHMe5LmeaJgyQLJBiUsefLHgCMHwiQc+27Z6enve+970IwsUIkWUZG4/J3i8zVrHxDNvqlClTdu3aVSgUWltbOY4bGhqyLGvGjBnIU2MPGQ8HofqTOu9E42Si8ZDNZiHRLMtCqmZTU1MsFuvt7UU2H7Ta/nBsWRAmHcvl/47Yn5ZlQbXs2LFj6tSp0Wh0aGiIrCkNxLFYSg6DFcEHqVQK6Y6maSKmJBKJOI4zMjKCXTh2rtg9sL2s4zjFYpG5/5FJyEwdgiAMDw+z7Qg+crY06roei8Xy+TzLoI7FYuVymQUWeJ4XjUZZbrA/Jv8QQ9+ynGg05rqcbbscJ8iyOjKSbm5uTSaTSBZA5i3LuUUxGLhyYa1FcFwul6tUKrgLZsWFG555qVmkoSAIzc3NkiTBEm5ZVrVaLZfL06ZNg0LyixU8H3EC+PqBy3McJ5FIpFIp0zThIIOdvKurCw8BeezId2WPGlsiRCbipbC0WAwSGPkxBvBfBUGABRg3G4vF4vF4LpdDhAQif3GDbHmoYwAHkz48LzqOF4lEDcOUZdW23VrNtixnbCyfSrVEIjHX5YLBEKuSwsz7LPebxSgAlheGMYknwyqdIKYYW3ZBENrb2yVJ6u3txSCxLKuzsxO+CRjhJrp+YZJM9NKZlZG5POAH7OzsZJvdcrnsum57ezvb7uMfsuUH5klBEFDJhkVdsAGAV8/zPIaBIHCWbXqco6qy69pQfoIgtbS0lYqVTGYsEo5pWhCBcZ7nSNIRnw9FUVQUjeOEarXmupwoyn19A+3tndFoTBBEz+MkSda0gChKnsd5HodRXSqVcI+4Wdd12fyGv4TDyz8h+COOsWXq7OzM5/P48HO5XFtbG0sZQ5QuSypGdPakmOx4QGkiwzDi8fiUKVOQp2maZqVSLRbLENADA33BoBYIqLZTEwRudHRYEDjPcxCTC/MZu1q8fXzC2B7g1uBvYnUcsPOcPXu2qqrFYtE0TdiT2B6GabXDy6wmjjTHopXloMABj/BMVVURGPvoo4++//3vb21txZbl0UcfXbRoUUdHB4zP2EoiiRFDEOZHQRBaWloGBwdbW1uHh4clSdq5c+dJJ52EE7Gp8J2kmB4Iz/M8/2akDjvXRL9fLpeDwSC+tFwuh9A81EGyLAuqpaWlpaOjA2kmSJf1BzayqcTvlEUiyZFOB5gs8LvjpvzWjqGhIdu2Ozs74cphUYrJZDKbzSIQAUUFR0ZGYCTDATOZDOwHrHQb9BD2tdjcvzt1wyZi3GvaPy54UZRYaQp4RpiRplwu53K5fD4PJY21PxQKxWIxVCHDBD3uvvzVd/zjmZ3y6G4xWUI7/i8L4JBl2TTNkZERURSTyaTruggyUxQlk8kkk8lKpWKaJlY+6LBSqRSPxyHjsEgPDva3tbUUinldDwWDGsfno2IhAAAgAElEQVTxHMeJgmxbLs/znMfcju/e54AbZVGuLMhpot8vlUrBYBBhs9lsFkqF1S/BYtza2trZ2QmhNi7DyF+ScVwCM5vojhb+kclMiZZlzZo1y7Zt17VbWlo4zt3++rb58+aPjA61tDTDYMxxfKFQiEajnsfx/L6XiM2JJEmYDKHq4AsOBoN4Ygg8P/BKSJo0EMfW0nUIsM8IhUIwp1er1fXr11911VWSJI2MjFQqlVwud+211/7lL38RRdEwDCxpoVAom80ylQ2zMHwQbW1tyHnbuXPn//zP/7Dvh20ODhEo805gi8ehMwkRzYMyeiMjIzAmBwIBBL6kUilEJWcymVqtBquPP6+PzQKs7icOi3TZo7hU+7Wgf9VEegsSUDGtWJa1bdu2lStXDgwMIOZG07RnnnnmjjvuyOfzzIGSTqc9z2tubg6Hw3CK12o1BHDYtq1pWl9f37p160RRRFYILCvMPHMUnwNga8m4aZPNrRAr3d3dg4ODlmVFo9HOzs5p06ZNnToVYi6Xy2UyGegYf9Cu/4jjggr9ETZHNLX7bWE1mpkxgF2Mbdt79+5dsmTJrl27sA5xHPf8889/97vfRRB3PB5HTDH8tvF4PJPJwAeqKMrY2FhbW5tZMzdv3vzGG29YtgU1oyiCokjjPpZ37X7xWscVSzxEuD3b+o+MjAwPDyPOLxQKtbW1dXZ2dnV1JRKJarU6ODgISyrbooybu/x2Ozb5HEXJwmZX/7YKqQOhUBBWQ1EUh0eGf/KTn3zr3/+tOZWyHUuShWIpf/31127fvp3juGrVRFFKVhTRNM1gMIhbi0ajiOB+9dVXH3roIdjj2QXwB35yRCPQMJIFg0zTNARDqKra3NysaVqpVGpubkag1tSpU+fOnWsYRiaTefXVVx999NFMJgPr99DQ0FNPPfXoo4/mcjlEyA8NDT388MN/+ctfXnzxxeOPP57NX6ySd32tLBzHed6bdQKY/XaiX5YkqVgs9vX1ZbNZSZKSyWR7e3tXVxfuNJVKTZs2LRAI7NmzZ/fu3X5Drj9pmUVusvKO+LCPESuLX7JAV7FNM662t7d306ZN3/72t3meLxQKlmX19vbu3LkzFovBoaOqalNTE5xoxWIRqxf8SoisrFQq119//cDAQKlUYu4/5kR4d6qHTXTv/ocgCDC6cGw7yExBhUJhaGgIVfUikUgqlWpubo7FYriX1tZWnuez2Ww6nUb6CVwJ7ET+LbW/ePmxY2VhhaFZVT2YzXRd7+3t7enp+cEPfhCNRuHt3b1798jISDQaxUIFoeZ53ujoqOd5CD4rFosIr0ZwzNq1azds2ICgTtu2HYezbZd9435TxLtwv/5S+kyyHKL4CkKGMQ8gDK6lpaWlpQVzSDQanTJliq7rw8PDIyMjsNZMNA+wirrHgmTxPwp2Ja7rKopUKpUkSdACSsUoVSrlDRvWf/vb337yqSd5nhcFQdO0tWvXZrNpx3Ecx0KnC8QGsaKUiG0fGRnBSEgkEqtWrdqyZQvz/rOv7223jsSxRiO9KhbYgTGXSCRaWlqKxeKOHTv6+/t7e3tHR0c1TRsdHb311ls3b968bdu2iy++WJblV155Zdq0aXv37n3ttdfOP/98juNeeOGF97znPT09PS+99NKqVatYOQS2+6xv2ghw3TfnR7bZmuiXTdOEfSgajaZSKaSnwj8Ck5Jt27FYLJlMOo7T29vL+nEwPeSfqlglTUiWo7i98C8P/keN9HV/YXuU6DjjjDPuvvvuRx55BLtn5D1Wq1XP83p7e2+99dY777zzkUcesSwrHA7fc889vb29IyMjlmU99dRTr7/++jPPPBMMBtesWdPd3Y32CAgEgTB9d5JaJ+Kt3XY4JmrZW4M1sVQqVSqVKVOmNDU1oXJuNpvNZrMoKBIKhZCTX61Wx8bGcGt+KcYki3+aHmdlOWqPgOP84xPtBfCXzc3NsLSdccYZP/rRj/7zP/8TncUSiQScRKqqDg8P/+IXv7j55pt///vft7S0vPLKK3/+858zmQyiE9auXbtu3bqenp4//elP69atGxkZwRASxbcohndZsowz7fjf9UFBC6pyuRwOh1taWlAgAMUYkQgGw1symbQsa/fu3WweYLmH44ya/lH37tzvIRg3D6AYsWkaoijKkiwIQiwW6+rqOHXpyXfccbthlM2aWSwWZr9npiRJosirqvrb3/72P/7jP375y1++/vrrKD36yCOPRCIRHOovf/nLCy+88OCDD/I8v2XLlr1797JTH9QGSRz7HP1R+zfCSrjCz20YRn9//65du/71X//14Ycfvv322//t3/5tx44d2Wx2w4YNO3bs+PSnP33ppZcGAoE77rgjGo0++OCDl1122bJly3Rd37t3b3d399VXX33ppZd+7nOf+853vjM4OMj2Hzhd3Q3m43bV+PkQUxVCEYPBIJxZ5XKZ6SrkmyAHpL29PZlMYlXzqxb//OuvkcWiNet1X4fBQR1DWEXQK475hlzXveCCC3784x9/7GMfKxaLvb29qVQKGZibNm0699xzLcuKRCIf/ehHt27d2t/fv379+iuuuCKRSPz+97+/5JJLOI7r7++///77N27cyAIz2cbuMBrW1P0hHPgi/K2gEFfuui5ySdibRWYsFqpSqYQ6h4FAAOnrrFfOgerQXwz0GLGysB5brNUU/t513e7u7kQisXz58rvuuuuHP/zhCy+8AE2DPnZbtmz55Cc/WSqVpk+f/olPfOLOO+9873vf+5vf/OYjH/lItVr905/+tHLlSsMwdu/e3d3dvWvXrsHBQewBHIdjKc3vvmTxtwI9qAtvHPl8nhUDVBQFlZZgWkilUqFQCBFg+BlF6lgg9jgzkr9A/lF/9eOq9bMn4DiWLMsc57qeI8tSpVLiBe9LX/rS1Gld16z+uqrIiCLnBc913Z/85Md33nnnnDlzXn/99QsvvLBWq42Nja1cufKPf/xjrVb74he/+Oijj6qqunPnzt7e3u7ubr/1kSRLg9Iw4be6riOKCvkjgUCgqalpxowZ3/jGNxCCmk6nR0ZGFEUxDKNYLK5atWrevHn4mJubm5999tmbbrppeHhY1/VCofDcc89dfvnl8Xi8Wq2eccYZjz/++Di/ft2d3LD8s1KeWDUPsctHJB0sIqxwLYrTRKNRGD9Z+CG8SCxa0x+Ei5P6AyPetXYqb8s4xxDMttgKI30AYRxf/vKX//znP992220333zzb37zm+bm5sHBwccff/wTn/jE1VdfbZpmLBZbsmRJOp3+4Q9/uHTp0m9961sbN2688cYbFy5cePLJJz/22GNXXXXV9OnTkYnGolP3d18TOE5AYKZPwb8bU5i/WjH7G0Hg2TpqWRaKn8ZiMcRjwYnAOvwhbFkURZQCQ/1AFF+Z6FH7m7awkXAUp2x/zh1LjMK1TZ8+fd26daOjo1/5ylc2b958++2333PPPcVicf78+el0+qGHHlq6dOmVV17ped6zzz577rnnnn322XfccccJJ5xw3XXXDQ0N3XXXXaeffnowqP3lLy+kUs2nnHJKSI9xHMd5nKLIE3XuPdJgHvDHyR26fTpcG4jxQlE4FPDt6+uLxWJwAsLQEolE4B6F9B+nhw6qj49iLNeBMTd46SyCGPbCfD6/Z8+eGTNmtLe3f/KTn7zkny9dvHixaVZVVd21a9dXvvKV3/72d8uXLz/nnHO2bt167733XnHFFT/96U///d///YwzzhgdHb399ttVVf3yl7/8zDPPrFq16sCKGFSOpeFoGMkyPDzsui7rG4eoK8uy2traUDg1mUwiS6hWqy1fvvyKK67I5/OLFy9WFOWXv/ylaZqXX355Npv95je/KUnSnDlz1q1bd/zxx8uyvGXLFswI7AM+UPu/c3Akf+7foQvDF4tFhGVge4063KVSCbVVENbDjhCLxYrFIuTLW/JP9sf5+h0BR31j7YfNpyichaqXMOyjSAZqt994440zZ878h3/4hxNOOKGnp0dV1cHBwZ6enmuuuUaSpO7u7mg0mk6nu7q6fvzjH5966qnXX3/9JZdcgtpZxx13XHd395lnnomzICgE5z2KjiE2xnyGPfzMQ1SxooUIHPYXbvcHiUOj+4NCxhUXGdfGwX+Qo77VHidZsHLjetDx2HXd4eFhURSvv/76VCr1mc98JhaLpdNpTdOGh4dfe+21W2655a9//SsqkmWz2SlTptx3332nn376ypUrP/CBD2ia5riOruvxeBwtGiqVisArqiofLZMDz3N+1+3bZiYiTwoZYbBCIWkOxlfUDGSZ8LIsVyoV6Ndx88C4uJYj5Pv+2/E/f//t72vv6rk8zws8hwKbgiAsOWXJlVdeef31199yyy1LlizxPA/duNauXfvHP/7RNE3DMDZv3lwoFD7zmc9s3rz5e9/73nPPPRcKhcbGxiqVSktLSyaTmTlzJgv0JpnSoByLkmWcBRtfZlNTUyaTwa5CEARVVXt7e3ft2lWpVFCKbWhoaO3atddee+3pp5/+qU99asGCBdFo9Cc/+cnHPvYxJLj29/evW7fu4Ycf/vznPz9v3rwVK1a0tbXF4/EvfvGLX//613EiDGgYQjBHTHSR0Dcouo+4yGeeeQZ1RQ/6+7a9r2RTqVTauHGjoiiFQkHTtFAoyCIBsQ6hdEoqlTrllFMkSUJ1eVRVQm4n8rRRKxY7qmAwODIygjKXuH7sUZAQjiA+NG4NBoP44RC3dlBQ0w89E1iQP6tNN6mXy35m+0sUsGLNbGFFYG0EkNr6s5/97Nvf/vbpp5+OHEjLslauXHniiSfWarVzzjnniiuuSKVSmqZ1d3dLkvTss88ODg62tbXl8/lcLpdIJFjxWdaEBWE9UEWmWdM0pVarCYImirzncYZRDQY1x0EgCO84Lop2jDNLsLHKpsJxvj8sCrbtyLII4w0qxITD4VKpJAhCJBJBFQrHcUVRQJ4naxiJUHEU3/MfnBVo4Xk+FAoZhoHK68ViEfU2WBNsqB/mEITJDSMcYwDGrYlWTdQ6q1QqsFEhiESSJMQ+o6YLWsNgNE5qMODysNbiULhs1JVBaYNoNIq42kcfffTLX/7yhRdeOHPmzFwu19zcrOv6P/7jP8K2tHz5cozPrVu3lkqlXbt2jYyMpFJJQRAGBgYWLFgo8MLQ0HAsFlNkmec5XG0ikcCngVuwbdt1BVmW2CC1bZfjOH+9Fvac8DuQEX594K8feOAOwXHeTNnDmJckCRqd5znP4xwHJZf2lbmrVqttbW2yLJfLZSTN4a2x1Hd8gPjqNU3L5XLMSuHvh4pPiblE2T+ZrMEVOcOw5eCHYDCIYjn++gsIiS0WixMlQ7HKUiwzn31HwWCwVC6EdL1cKXqe19bWVqlUXM+9/PLLn31m7b333lupVDARtbS0nH322U1NTag0g0YHw8PD/f39kiStWbPmpJNOisfju3fvZr3BmWMO0YFNTU2s7hHREByLkuWgwECKHSfkwkknnfS9730PXhJ8zD/4wQ+mT58eDoe/9a1vvfLKK6VSacWKFR//+Me3b9/+wAMPPP7449OmTbv55psHBwc/8YlP/P73v3/uuedaWlruueeeQ5TSOgTM3mOaZjwe37lz5xtvvDGRFAgEdKwxlUpF13V8z8FgsFIpsTAaLCTYMVx55ZVYhzDvoCwNnCYo+4vaM9hgwYfCCiixdbSOEXbJZDKdTkuShNwNzDJopFCX47M2BaxGO2qKI3UzEAgsW7ZsYGBg9erVl112WXNz88yZM1988cUvfOELpml2d3fffffdU6dO7evru+SSSzZs2LBt27Yzzzzz0UcfnT17NtJthoaGWltbEZeHiRvhvYZhtLe3a5piWY6uBziOGx3NIOqZPUnbdmq1mmWh5KB0oNWKGWz8GWH4e0EQsbG2bZfVueJ5vqenB+JvcHBwYGAA8SuSJA0O9mMHaVnW4ODgaaedNnfuXBYp7A+DQH9mZM1gPByJHJCxsbF4PI7G5my3AEdtrVYLBAK2bedyOQTcoE1xXc6Lt4PmwyjCsXjx4osvvnj16tVXXHFFa2trOBzOZDKJRALFTP/4xz8uX778hRde+MxnPvP8888/8cQTF1988Zo1z8Tj0WQyuX379o985COtra2mabouJ0kcvCo8z+Pi8eFks9nm5tZisYz0os7OztHR0ba2FkjY/Y5Xnuc51+XQc1DT3qzOjK8YL4jlCowrg4RzoWpIsVj0PG/37t2IUEFZ/Vwuh7ZH6Hd20kmLUAsY3z7chfvVlQvdwILKWecNdj0YonUcFYiig8hG9HexWIxEImhzyPM8Phw0q0flgkkdH5u6UCiSy2dj0WitVvvT08/cdNNNnCcU8qWvf/3ry5efVyqZ//iPF515xj/09vYnk8mOjo5UKnXnnXcuWLCA5/lrrrlmwYIF11133emnn75o0aJly5YVi8Wenp5SqXQYjVCIY42GkSzQxSxYDxEMCLHEB6mq6qc//Wm4QlesWOG67uDgYEdHB7qYfvOb3yyVSjA14/eXLFlyzjnn4AufbId3dknFYlGW5ba2tu9973uxWAxBJwf9ZcMw0ToVFm9RFFElvaUl5bcnIfnWNM3t27djvmOeIAThooY3i/ln+cDM8MOShg4d3jtZcrlcU1MTjD2sejrSp+t1igNdWjCJZzKZUCiUSCTOO+88JDwbhvHxj3/8wgsvXLly5cknn/z973//Rz/6UTAYnDp16n333bd48eL29vZrrrnmxRdfjMfjy5Ytu+iii5566ilRFJubm1FyCs+tUqmkUqndu3fXau0tLalaze7p6VmzZs3mzZtvuOEGqDFRxKqjieJbJjt/DyDElLBO1Ni1oyBpOp1F6+xyuZzP5yuVyvbt28PhMNKa0KcNfWWxFLW2NqM0XGtrK8qbJhIJSZKQLIZR50/PFkWxUqlA0fp9XvUCFjuWRY9hlslkmpubsVZZloXsHo7jRkZGYrFYvU6N+2pra8ODam1tXb58+Y033vjCCy/IsnzRRRd98pOfvPrqq6dNm3bDDTd8//vf7+vru/jii7/yla/Mnz+/tbX12muvve+++/6/yz4fCAR+/OMf8zz/lVVXy7LMeVw2WygUCq7r6rqOIWHbtiBIqVTKdblNmzbdddddl156aUdHRyQScRyvVCrBd8wsKTy/LxoD74gNBlaVGOlpMFDl8/lMJgMPRbls9PX14WWhd/fOnTubm5v7+vqCwSB8Ok1NTSjcgNrE/m8c4w2ih5lUWcnjcdWkmOmijpIF0y8+ItM0USEJ/aps287n86gbHolEkNs4Wd+rpgWZcchx3WKxHIslCvmSbbvxePK00z5w6623ff7zn29Otdq2e88995x55plXX331li1b1q9f/8gjjzzxxBMPPPDAtm3bZsyYce2115599tnlcnn27Nl9fX2f/exn77rrrlmzZtXrURBHhYaRLJqmiaKIuQMzOKs/BgUTCATg+EfvVtd1oVfQuIfn+XA4DEMl3L3hcLhSqaBMNbbgk7oeTBys9Fk4HGZlyg76++Fw2PO4QqEoCAIKs6I9NTZJ/uIZKFTf1dUFCwpswihZwf4GkxSM0vjnqJM2butfx9UrGo0WCgWYf2ErgiG6Xsdn0RuY9JHROm/evCVLlqC5sSRJ8+bNW79+PTb3M2fOXLNmzdatW4eHh3/9618vXrzYdd0XXnjhuOOOMwxj2rRpzz//fDqdjkajV1555XHHHdfU1OTv9AZrfDgcfvHFl0844YRAQB0cHH7ttdcefPDBjRs3Ll68WFVVSRIqlSpq5pbLZbgXDaOMqqPlchntiKE29uzZgwSfQqGAGrXopK1pQV3XQ6FQKpVCg4JIJNLR0bFgwQJZlmOxWKFQ6OrqgiUjHA5znMvzPHJW0V0c7esQZgsVy2QEVA7CM2Fu0XXdH5X1zkHvX1RxRBKTKIrRaLRYLDY1NeHaUEg6n88j5b4u50UHxGXLlo2OjsZiMTQonjdv3h/+8Ie2trZqtRoKhe6++270zdm8eTPchffcc8+iRYsURWlra9u7d++uXTtrtdpXv/rV973v1FQqJctyJpNJxJOJRCSdTsdisWAw0D/Q63leV1dHPj/2+uvdjz32xNatW5988smPfexjosjremBsLM8K5KPoC7Jy8JWNjg6joP7Y2BgaLhYKBbS6RFkgPDpUfksmk6FQBLn6yWQS/TTGxsamTp0K7w9eLsK5sHvZubOb9SnEjghWLvQWhZkQniZMg6qqMlPrkUhih+0EGxjTNKFWC4XCwMDAlClTkskkdlxw8yFUfFLHLxaLoigbhhmLJnieb25uuffe/5o9e46qqBXDEATn0k//35kzZjc3t8qyfMkll8yePbtQKCxcuPCmm25qampyHOell16aPn06x3Ff+tKXPvjBDxaLRRhZN2zYcHRLaBJ1oWEkC4yfLI+GdeXFOo0Fr1QqJZNJRCdgNcXMIknS3r17Ozo60D8WDRfRLFSSJNu229raJvtpoWwXi8yHAz4QCEx0nHLZwIaYhQXAgeqvRILNEJYlJAfxPN/U1KQoClZxRKLgw0PCnqIopmnmcrlwOMy6u7En9o6f+pugsbamabhfzK3IsK3L8bHU4W3CRcLz/OzZsxE2gW63ruuecMIJ6Emrqqqu62eccQbM4/gnKIeK3OZZs2ZNmzZNFMVMJnP22WdD6uGls4DfcDg8Y8aM3r39fX19jz/++MsvvxwOh2fNfM/gwPCtP/hhJBIZGRnJ5XIogFGtVgvFXKGQQ8E6KIxQKAQNPWvWLLSyG/f3wWAIwR+BQABVWffu3ZtMJqFC4HpvbW1FcwZB4JihznXdWCzW39/f09MzZ84cDGbWQ4r1aULQj6IorLcca7VTl/cCqySGHPbWLDYWsVkItsAiikuq13klSZo6dWprayu+aJQHfN/73ocicuFwOBwOT58+vVQqYU9v2/Zpp52GCoRdXV2pVKqrq2Msl4nHYh8864NG1YDy9jxuZCSDMBHbdrC9GRoaWrduzeOPP5nN5sKh6IUrVj79xz+/tu314eHhfD6v6zokqWEY1WoV16YoiqyIyWQcjc8SicSUKVMWLFiAbGRU2UciD74azFfhcBT1LVHqEDUtu7q6WKAJz3P+Vzdjxoy+vj5FURBACssQwvAx5+ClwEWIeQAj3C9Z6htmi7ePoO8tW7Y0NTXpuj516lQ0HNV1Xdd1tEILBoOTjZnjeVGSZNt2PY83jGogoJ1z9jk1q+a4bjAQLJUqpeLYGWcsq1Zrsixns7mlS5dC1MIafcIJJ2DXCv/7vHnzyuVyZ2cnop3GRaATjUjDSBbMwkiiwd9gn8FSZCuVCroWY+WAJQC1CmC0QMoo5EKpVMKkgzTaUCg0WdspYl0xa/s3ExN9EpqmiSKPgANIEBZZ7I/hZxZ47KUguRCcCPMDlmcW/CvLcqlUKhQKLS0tzAZ7JKrhjYyMtLW14dTpdPpnP/tZqVS69tpr63Jw3CmLMmHPBIkPcPPH43E8gVAohIAJhH8qirJnz54pU6bA74aVoKOjA+8lnU5j74WgV5TkwvJWqVQMw+jd279nz56HH354zZo1M2bMaG1txSBBSfhoNNrW1pZKpVAgx3Zqra2toshDfEArYI8LT9m4SEw0bxNF3nU5BFQiXhIlmyE4kKuM36nVbNjYoA45jps1a9bWrVsRwoWlGiPBX5qdxT9BMLFoibq8F5j3YFiC8Nq8efMPfvADRDsGAoFsNvuhD33orLPOmj179ujoKEIZ3jl4RxCazLUBvQ6/JNooxmKxWCyGxyiKImwnXV1deL+KIkUikWKpGAzqjuPkcrlYLOY6XEtLkuO4gYGBcDgci8XeeOON++//78ceezSTGXvPe+bC52KapqZpc+fOrVarra2tK1asQEg+Ajl1XQ8EAooqRSIRnveYAcz/3MZ9ehjShmHCYQQlAXOdYRjRaNj3m5zjuKx3PXQhc/Xii8B7RwwfNmBwRyJW3Z8rXpfXwSiXy4lEwrbt//qv/7rnnnsikcjg4ODSpUs/97nPzZs3T5ZldF9H0FipVDpEL4KDIejBsGNzqqJyPMdxgmU5tVpV1WTX4TzXDYUius719va3t3WUS2Y8FnMcr6mpCR4627ah51C3BpIOUg/fFDYP9X0gxLtMw7w/lqIC1wki/FlRV3hMgsEgslgxXiHwsdThO49Go4hp1TQNe27HcZAbPFlg9cFyhdkK1zDRJwElgxULJn3s2A4s9ITfR/QGLChQV5hG4TnGQoJQNbTUQTQDzE5HIgwTMQqQdz09PTfffHM+n7/wwgsXL15cl+NjfmHV8BCwgsAd5v9SVdW/j4QZ3HGcKVOmwGKhqipchKVSCVW2kskkGkzisCxoCZNaOBzu6upKJpPLli3btm3b/fffv3XrVqiiO+64Y8aMKY7Dua4nSbxluYoi1CzkD08YxOd/ift7pli4NUWReZ6TJBH7Y8MwcF+QICw8wrIclrYGx6WiKDt37pw6dSqLPUeXY0Sds06/lmVBWqENZF1eCivqA+kMFbVr164HH3zwl7/85cKFCzdt2uQ4zpe+9CV4PeAXqNd5Ee7KXv2BKhw1f2EtQ0EafPjDw8OyLCcSCc9zBH5fb6mQHsJ0l8sV4CNOJBLhcHhwqH/GjBnXX3/9BRec9/LLm9esWTfQP7Rt27avfvWrn//854NBNZ0eQ7dF9FWAFQTZPRzPmWZtf+Xit1QmhPEDd+HPJIJ0RgMdfNTYfSE3zV+1Fv9EFAV0O0c9fvR/xRDC/AM7K+KFk8kkFAxmJ38j5bq8FMwD3d3df/jDH6655poHH3zw+OOPD4VCl19++Yc//OF77rnnwx/+sG3b2BBijp3s8V3XM4yqrms8xwUCAcexOE6QJZXnxd27d3d0dMiy3N7WIYqc53GuyzmuI4oSDD/Yi+7Pv3Pwl57nwbNMsbd/HzSMZJEkCXU7ME3jO2TZvCqanokAACAASURBVAjVxB6ajUvktjD7OYyZMMDgN7Ezw/oxWQcHK3UAWwuWw0NIeMexRFHxPI/nPVmWBYFTVVXXA5jpmMLAMbF/CofDcIojSBAai9UTgwlheHg4Go3Onj0bZhsWhTeugfM7RxCEYrEYjUaHhoa2bdt22WWX6br++OOP10uyYDeGQEgWSIi0ZJhVIEdQgQbvDtN3oVCIx+PoiIYEZkQPsNL1sH9A07D0CrSXq9Vq+cIY5MvpHzh18eLFvX17Hv7dI0//6amxsbGa1S6JkijxHMe5ns1xiiRJPO+xQnP+qhJ+y4o/gjgY1JDaikXOdT2sWPBlIIR5fw8KDqFCMAYgmMN13eOPP37Xrl179+6Nx+NYkxArgDUP9o9CoSDLMmKkYGqqy0thSy/WHsjBzs7OZcuWffzjH9+zZ89FF13EcdwTTzyxdu3ak046qY5CGSIJEg3RSzClwLTmOA7WZkgZdNtBUiF8qZgTMF3IssJzom3bouh5Hh+O6JLII8QNi5znea2tzSeeuHj+/Peec86HN27c+NBvH3ZcS9PUYqnU1BT3sGUSOA4v3+PYd6Wqyrh1EEMC8wlrK+3bdAlMT7Cpaf83y7Hf5DjB8zjP4wSB6+jo2LNnD+LtYGTVdV1RlFKphM7k6NUQDofb29tZKzEmeurddcQtl8s33HDDQw89tHz5cjzAu++++/zzz9d1HWFP7DM8jFO7roNHYRhWICgLggyR57q1adOmeR5nGKamqrWaK0mSKHIeJ6BkADYzoVCoUChAuSL7mondQqEQi8XIMdToNIxkwUQAdwx8t1iEsIVlbWBZNQJ/dAgCL7Atg0QIhUL4SziYNU3z50Rg+YcTBDsb+EcxxzG1znrssY0Uz/Oet68vPKLocfFo98VxLs97rmuXy0VshFi2KnQPMzZYloXVS5IkWZaz2exf//pX+L+xyYYVVJKkKVOmYCfhvyT2xPylTtkEengdqtHEB00DVq1atWnTpnw+f9ppp1188cVTp05FzjaiGeCsmewpEMgp7YfFe7I6IljAWCgPHhS6kOBcmJtYDU0UHkR8ol9NsgoW+105Hs97qiY5jhMIKjNnTv/8Fz530ac+EY3GHccSRVHgOc/jZVl0PU4QOMdx/Y2uWFIriuAxrxZM99AcgiCI4r6oAsexbbuWSHRgMHiea9s1WRZxHAxIVCLxF+pFh6xqtbpnzx5N00KhEIqGIQ8FrhA8Ls/zIFxYetGBPYYmBcucR+wUzEJ79ux59dVXE4lENpsdGhpCoAAU9mRVC3vFLNsFb9DvPEXctP8rwyVhaUQ8mW3boVAILhLfi5ZFUfJcjuN5UZTxHUiSyHGcJAu2U7NsE8VgOI73PE6W5Y6O9ljsrKVLl7quXSjmg0GN4zmB5/Y/TJ7zXCSuc/vbQh0Az/N8tVrTNEUQBMfxbNsOBODndUSRxxsXBAwny3VtNGNAFUGfrc5FqqCiKHi/o6Oj6BbJOtKzeaCtrQ27NUwsgsApioS5yF8Oe3+tZ2//DwLHTc6BKAjCs88+e/bZZ2Ovgh2FZVn33XdfJBJhSgUjH8E6kxoOvOBJMu+4XiAos4/CVyjcU1U5XyhEoxGe52o1W1Ek1+Vs28YeAPZpzOrwY+KSZFmORqP+zeE4Ny6Lh8NUw6blY6ETE+GnYSTLRMBDxIJdsNohwxBppagZhYYsyC5GEAyKTIwruwSYFQcOdWgXbIz8xcT8BRzZnqZcLiISFgEoKFoaj8f3L5xCMBgMhYKO47iuXamU9k80b66Cfqc4GlajXjs6+mLu9vvUsVQf6d2DJEnZbDYYDG7atOl973tfJBKZO3fuaaedtmnTpqlTp5qmidpomK3qGJbLui6j0wqCGPCuK5VKoVCAikKsyf4gVkFVVczm43K4mBSAqQNLAt4k/pQkKRzWJUlAJo4gQJcgk9l23YMUzMWLQ1kwKCRFUSCOESaJHrMYABir2WwWxuqDPmf/oGKao6Ojo1KpFItF+AqhcW3b7uzsDAQCuq77m+bUEQx7uFnhaXUcZ2Rk5Jprrmlra+vt7X366ac9z7vttttgWqhXXRY//rHNvvdisYgGTIi1RDga8sNxqRgtvoO85ZhwMWM59IUM8zzPBYNByFnW+ti2nf0LG89xor9Azv73xY1r1Y5KP1j8AgE1ny/yPB+JhDiOi0QiyBXwPA/7EFYfknVgZgFtLNodBagQe45uiBPMA3V//G8BOZvTp09PpVI9PT0zZ84cHR0NBoMdHR2II9Q0LZ/PV6vVSCSCug+TPIO7/39vye7Bl4XdYywW8TzPsux0epSF90LbBQIBvD68U8wAeEfjJnmiQWn4V+gvm4a1DbUBUDBU13XswlGYa+/evV1dXdij+DvHsm0xkynjylb6lQRmFhhC/I5qEA5HsctXFMU0rXg8CdOvqgY8zzNNq1gsl8uGJMENrfm/IixCzOGFsyPdF2CCY72E8K+YnfmIPmdZluFtefLJJ9EhWRCETCbz61//euXKlWxuZSVW63t29ophzzAMo7e3V1XVQCAARWIYRjabNU1zxowZmL7hR4P3xJ80gcUA5iusTFh+/D412EvYmx0XGzROpDLFidPBlY6ZGuYBrKDQylh+DlG8xF8RmHnHmAkNO1psPWHT8tebZ1aKOrrto9Eoi7bB+MTm/rOf/ezChQuz2eyNN9540003/fznP7/22mvT6TTC2+uL3/WG1oAoagzDJ5ZtnufT6TTKRkMyoi4I2+XzbzWK4PuF/HUcx3Vh3dlXzdbfowdnxxtkg5BZgzAK9rfjYN2peIxJjuMikZBhmJFImOc523bz+THoexbPBEuSP3R3f0S2iA0YGw+xWAyvg80SB5sH6v743wJcMP39/Y7jzJw5s1gsJpNJ9EmWJKm9vT0ajTI5iLTKupwXnwNim2zbzmQyrKES20miQUcwGIQlkiVjsp5iJFn+Dmj4V4iVidW8GhkZQU3xtrY2LEtYS7DO1Wq1/v5+BCpCicNVj4+fjW+/hXDckoC1zV+NdFyXEEwcSP3YsmXb/PnHRSKRQqEQDkcEgdP1cDBYUtUAx7mO4yHTErMPjsk+KvYD9pGwuBxoMPBbaI4ofX19nZ2df/3rX3/0ox997WtfQxWKj3zkI3feeefGjRuXLFmCWFEYP8LhcL122yy4B+t9sVjMZDKmaSJDCss2xIGu67Ztw3KOKixsumRZ0+OqbMGt4G/S5u94cNCaFljMDhrSyIrs4fjYDbe0tKBABXxVmMfT6XRLS8tB75cpp3GnRkEU5gn1KzBmjKl7rCVupFAoYPOKNaOtre3kk08+/vjjZ86cibdw2WWXnX766VdddRVKp9fr1OPuhTk3+/r6crlcNBpNpVJ4pAi/hZhLp9OCIHR2dsJ1csAx9/2AxZ595kygMqnq96n5P8xxatX/5bkux96FosihUGjTpk07duxYsGDBe987H8419EhiTm203UCgHmsdBbMc+7THVRM5wHo0bh44sh1Ps9nszJkzV69efeutt0KdC4JQLpdXr179z//8zyiZw9IFkGlcl/MiKgB7xYGBgWKxqCgKLE9QLTCcwxqdy+XQew4CF0eg2Nu/DxpesrA9PewrhUIBVePgosYGEVNtPB4XRXHv3r3Q5slkkiUMj5uPoEvgOMBCyLIz2CLqX9L8beo8jxNFSeCVgcG+u37287b2lmVnnnXiooW5saIeClg1p1azq0ZNkgVRkAMBHdMTC8JlMTSYizFbsXOxNCh2XhaMfKQdQ52dnYVC4Ve/+tUFF1ywevVqXdeRX93b27t27dr3v//98Xgc1ixUgK3XBOE3hpXL5XQ6jdSw1tZWBAwhBggWNUmSUJlbEASo0gO7AuFp4yKRYspqibL4ZRzQ//vsenBwVtLNH2zL7Cs47xNPPHHzzTdfeumls2bNOu6445LJJEIXNU1D/auD3i8rX8vywvAExuXLMMcQorvwFYxLsq3L8/cHi+Ck+Xw+m81iu4/mVuvXr//oRz+azWaZYakujNMreDsDAwOGYYTD4ba2NvS4QdKQbdt44yMjI+ik2NXVFY1GXfdNmeIfknjRCOm1LKtW21cajhXgH9cYFd0V/K8bfxqGyQaDIPCSJHiewHGcZdmKIo2MjHzhC1/47Gc/G4vFLrjgghNPXMjaKrH3i5wv+LNY8ATL0sLgZxY1ZoTzt5B86zxQr8d/cJLJ5Lx581RVffDBBy+66CL06Hn++ee3bNmCjHE4avFxRaPRemWQVavVQCBQrVZzuVypVIIvLBqNYqrBK0AqKIoXZLPZQCCAZDE8VcQDUGxKo9PwkoU1vMhms7lcDp3ZUXnMv65A01iW1dnZOTw8nE6nYWhFzgX+K2aBfQ4bTUNKgmEYSNBgxTCYKXJcqojneY7jCTxfqzmSJEbCMVEUH3/syT//6dnZs2dfdNFFM2fO1HU9oOksVdWsWmwuZp1rcAEsIxp1XNiXdmCdA1Yu9og+53w+73neXXfddfPNN8OyhQIMJ5544s9+9rPTTjttyZIlWK0TiQSrDfrOYb4PWIOr1WosFksmk6Ojo7A6MKsv8tubmppQl1aW5VQqxQr9+Tu44pGixiiTm3jCTKmwqZaJUfxfDDY/uFPE8bAIXIQsJJPJ22+/vaOjY/HixR/4wAdOPPFEhDDv2rUL3Q8OJJvNMscWK9UDBwfkLDMKsv6R41xXWNXqVejTcRzU2CiXy8zoks1mr7/+enwjgiDccsstv/rVr6ZPn86iyN85fusmPjEUYslkMqgjjP5HrJsp9tOO40SjUUEQxsbGBgYG0J0HI3FfWvJ+WBEgGGJVdd97hyTdL0EEphLw3Y0z/Liui75UrssxEYzpAumNo6OjZ5999tatW1VVRej0WWcti8Vi8+fPl2WZhT2xo/lr8GO5xRNg8w84aL2l/fPAkV2Sh4eH58+f/4tf/OJf/uVfXn755Tlz5pRKpe9+97u33HLLySefDKkdi8XQtqJeRXqY1blUKmUyGV3XMQCw34AfDcYwbF2gXLPZLEq2MEstvIH1uiTiqNDwkoWZWFDCPxQKYb+CEkzoN8asu8g+QCUDGC1ZyU5/u5z9zfBslGZCCxgWBIpiKqjrVS6XEQYIr5PrcuWS0d8/gLarpVJ55sxZqqqKovSR5ctXXLBi+fLlc+bMaW5u0bSApgVkWbYsx/NcVrgWB0cmJxYeZgTG5RmGwWQTprZ35yOMRqODg4Nf+9rXPvjBDwYCgd27d8+YMaNcLq9atSqRSJxwwgmo7or6UcgjqNepsXKgOj7KuyE9xN8NDnKBxamgXBskKQvvYAHOfsMYKqOzrFrMbkiPYrtwWN1g0WHBHJVKBbX8IVlqtdrQ0BCLkhZFESvoCSec4Hne7373u5tuumnFihXf/e53Ozs7sRM9KMlkEkMLayTGA2pO+HPZ/B4uv1er7gXax8bGMO+jDJcgCIsWLbruuuvQfKBUKg0ODm7btq2jo4PjuKGhoYmk2OHhLwFQrVaz2SwSWXmeR118FJnFklYsFvP5fCKRQHumXC6H5t7+2Fj2fPDhY05wHAdV/pBLyE6Nd423jEJtGIRoWwhraE/PX/Ff0auhUChg/P//7Z15kFxluf/P2vsy3T3Ts2cmySSZLASCBIK5Ulg3YYs3BIQLmLiAWsq9UiCFUvdXWCpFiVKU3IsCpSjc0sIIFhEt748YEJEYEoWwTAIkIfsks3TP9N59+nT3Oef3xzd5PPbM5HcnzNKNz6csa5ic6T7Le973eZ/l+yQSiWw229TUtGjRIkQGjx49+sYbbyxZ0gt7FPqTpMGDlx0PHal1GNKoHqC2O/ToyXid4XkAZUE33XRTT0/Pe++9l0wmHQ7Hrl27zjvvPFSx4TCIU59dc+9xwe3SNM00TcjloSEGokWk6knyXX6/P51OOxwOaOqgKTpXOH8IqHuTBQEgxINhgkAIkuYCqqTAwgPvC6Y55Afg/UcsHMtMNpvt6+sbHBxEf4p0Ot3f39/Y2JjJZEZGRhKJBJJ5MU9hckHDGo/H5/MGmpqinZ2dEDXCyezZs+fur999ySWX9Pb2YhbOZDLIzlNV2bIkCJAcPnz47bffHhgYgHJMV1fX8uXL4ZvB5SAB094wlir0pvtthMDuV77yFeQMzps3b2BgoK2tLZVK3XLLLaIo9vf3Nzc3OxyOdDrd1NQ0hbkspHwKy0lV1ZMnT46VWMAtgrUKqxSqFbBpqDQMG1a0Sq5UKoODgzBH0uk0/oSUTvB84bNBTnehUMATz+fzaDSDxVKWZezturu7oQYUjUbhJ8dWu7Oz86abbrryyisjkcj+/fux+5/oenfv3v3uu+9iv67rend39/nnnz9nzhx7dJI8fFT0RL8k98CU3H/E+1DuBEO/sbHxi1/8IqTiIeMGJ9/g4GBbW9vUVgzZs3ZKpVI2m+3u7sbbivIQrO549GjOjKmAqm/sibf2wEoikYCdd+zYsXQ6HYvFsARmMil0UcYThwmi6/rw8DC2K8jDhQ6hy+Xq6JiD5bmxsRGp3+i+7nK5Ojo60un0/fffH41Gd+3a9YlPfOLBBx9cunTxiRMnsPHAA0UsFaY2HAkHDx587733YrEYnFuLFi1asWJFd3c3tgQwUqm92ph5YMraS42Ly+WCnMHKlStXrFgBhQhK3nI6nU6nE9mEXq8XXpAp+V7Ih5ZKJZfLBYULSOeh0zvpRJAvPBqNolk6SvPwqnI6y4eAujdZUDWgqmosFuvs7KxqZEqH2TVXoOi/c+fOt956y+PxaJqWy+WGhobQmBSeYfif7TUgvb29iqJEIpGenh6fz4dmRi6XC1FVpKkrikMSFcsSAgGfLAv33nv/f/7nf15xxRV333335Zdf7vO5ksksYlJ48SzLQoYAvCnpdPrGG2/8zne+EwgEWlpa/ud//ufOO+/csmXLJZdcgukMqW14P0mQBhJqcBphMYbXFEohVfPaWS9mLpeLmiJh/UCuJbURQT5pqVQKBoNnWLdoeq3SYYODlxSNTydFSiSdjgoRqLui4saeVWA/TxgoQ0ND/f39lUoFbjCsN6VSCUkkBw8ehOcMlcOwydDeEiJUfr/f6XT6fD747dra2hYsWICac+yGEVeC0w7eO+hASJKE6NW+fft27tx5/Pjxyy677JOf/OTSpUtR2IL9Ikl+UYEPpXLH4/Hbbrvt/vvvx528//77Lcv67W9/29bWRpo3aEWE1RHNPnHhiqKkUiloVFBeDmwyCjNRAi/se6ipTjQqKJ0Cj96eWA1LHaMCEsxnYa9gQJLNTTYKCXKQyxMaZTRIYF/iPSoWi0i2zWQy2LegxfQLL7xgGKd6kxUKBWpqWCqV4vF4f3+/3+/HWw+bOBqN+v1ebD8CgQDE2WCaQK7Q5XKhdu/0+6643V4KzNkLyyoVU5KkAwcOoB/1N77xjXXr1kGVHy8s+UjQaFAUxUQiEQ6HfT7f4cOHP/WpTz322GN4xD/96U9fffXVXbt2LVmyhAIc8KxgPKC5T0NDA/kbSESxXC7renkKpQVxtlQTJ0kSPXTqMEUHnIX6bZXiA70meNYnT55cunQphhzGACZDfC/lgVFf1XQ6jSaUKL3GC0Wq5UiZx9YRV0GyVZRRNFmTC/ec2vG6XC5YyVysNFXU/X3ElIdRSLPbGcYZpE5TqVQ8Hh8cHMSy5HA4Vq9eDXkxREMzmUxHR4ckSSiWKxQK8+bNw04ICw+GOOnM0lxVKQuiKBiGpWmlxYsXf/WrX73iiiuWL1+O14ysBzofRZEEwVEqlVBxs3r16i984QtNTU2CIGzatGnDhg3bt2+/5JJLTpw40dDQkEgkfD5fQ0MDJGjnzp07d+5cNNlpbm7GVBgOh//6178uW7bM4/FkMhmKKdQpWFmp5RDKEPx+/0Tt944fP75s2bJQKHTw4MGHHnoIZbddXV3IXwkEAk6nMxKJOJ1O6EYgGwNtfp1OJzIhEG6wF5FScis2xPZ6acqUIlMMM6yqqueff/5nPvOZuXPnLly4kJYNu9zZWGRZjsfjN9544+23347Fe/Xq1R//+MchggxljuHh4QsuuACVpeVyuaurKxgMJhKJEydO9Pb2Yjksl8t79+4955xzqCkPpSrXF3YbF/YKQnV436kmGb0yGhsb4RLDcvXyyy+/9Vafy+Xy+/3BYDAYDPp8PhgfS5cu1XUd3YgkSers7ITamNvtpAJyquOjL7KD0yuXjb9PaBPg11EUqVSqBAKBjRs3fuxjH5s3b57DoaTTWXsvoSqw00ilUh6PZ926dV/+8pexav7rv/7rsmXL3nrrrQULFgwODmKwNTY2oqVif39/S0tLT0+PIAj79+/v6urEOaOVdFtbm8/ng+r3zD2zaQDJ/nCtZbNZbA+o/ae90hsTbCKRyOVyL7/8cl9fH+QM0PAIxzudTpRJNzc3l8vlVCqFyZ/qoslLN1nHDCJ32MhdeOGF1113nb10kfngfBhMFowtlN6QLshEu0aSajjvvPNWrlzZ0tISDoeRgUGdtMrl8okTJ5qamvA5sE48Ho89G45STE6rmqKoR7RM0eGQLEt0ONSLLrrwggs+Mndup2EIliWJogAFENM0TrdsFfN5zeM5ZSphcKMeO5FItLe3z5071zCMN99889FHH21sbHzggQd27tyZSqWuvPLKr33taw8++OAzzzxz3XXXPfvss6VS6Y477hgZGenv7//e97537733LlmypN7tFTIKsa7AwYCnPNGq39zcnEwmdV1va2u78847Ozo6AoEArFgYo/AZnDhxwuPxRCIRJEW2t7eTSCi2blVyFySZM7a+lLK2KYwF51YkEvnEJz5x/vnn26WHSUB5ouvN5/Oo0E6lUlg4582b19XV9eabb2az2aeffjqdTiPy9ec///nxxx/v6uratm3bM888s2bNmnvvvffmm29et25dLBbbtm1bf39/e3s7QhVVZVD1Al4uu68FSUJ43yHSI4oiOpwnk8lwOCzLMmJDbW1t//Iv//Lv/34bNrvUWQwP9r339rtcrra2tuHh4XK5PH/+XBgctLiQF5DaANHvKWfIsixVdfz9CQsUhHI4lNbWliuvvLK9vQ3bmDPYK/ABwECHdYUyKCTurFu3bmBgYOfOnU8++WQoFHrhhReeeeaZ3/3ud9///vcvv/zyn//857/97W/XrVv3rW99a926Kzdt2hSPx3fs2LF169Z77rnH5wtMUoK2FrG33MJs4HQ6kfNul2ahR4OtJgL0MFIxKuDPg1ceJkupVBodHUXeW5XJchY9B2A9W5b18ssvHzlyhKQZpkOv6B+TujdZyMpG8pfP57Mn0o4FlRfpdLqhoaGrqwu/zGQywWCQtssIFSE7AVMk3InYZ2MRrdp10QpnGJZhWqZpOZxSe3tbxSibppAv5FxOjyAKlmWZVsWyLEGEBJXp9brh4sa0i3SW9vb2cDj86KOPPvHEEy+++GKxWNy8efOXvvSlkZGRvr6+z372s0ePHg0Gg9ddd93HP/7xiy++uKOj44YbbvjCF74QCoWeffZZp9PZ09OD96TeM85QKwRbATVBkFOb6PjGxsbR0VGn0zk0NEQBtVQqBXVURJpOlWvpOtIgaPnBikgBKXqy9sRGiK9Ifw8cyxh45I9paGhYsWIFzaTUkOHMMXW3263r+muvvQYhfMMwXnvttffff/+qq67au3fvE0888dhjj11//fWbN2/esmXLli1bOjs7X3jhhf/6r/9atWrVunXrfvKTn6xevToajW7duvVjH/sYhCtwevl8vr7KJeypxHSfMRiolgfPCC2HkI6GdJPR0dFCoXDBBRfYlwp0SC6XDViWMExPv90WDCD0hKLXnP6WvKp2RYMxJ/y3vBlZhp1qRSIR07TwLRCUGxcU1xQKBWTn7Nmz55VXXgkEAsVicffu3T//+c/37t175MiRX/ziF9/85jdfeeWV7du3b9u27a233nK73f/2b/92zz33tLW1XXHFFY8++uimTZuampref//9aDTa0dFhGNZUJZTMLnhkxWIR+oFUKIR/pdGCp4O0xUWLFn30ox9F13SkBNCe5+TJk8Visbm5WdO0WCw2f/587BCovOjstKRJOGNoaAgnTOVmzJRQ9yYLScSqqgqfKgpGJnpLYa8g5k2tbSAsTZFgCgChyp8EKCnQPlb0luZWdJMxRNMwLFGSJUuQZCEQ8FUqpiAIlmBYliGIpiCIgmgKwilFFopqDQwMPP/887CHXn/99QceeGDhwoUDAwOWZd19990+n29wcBDbgr6+PpS//v73v7/lllvuuuuuI0eONDQ07NixY+PGjahKwI58Rp7DdIEYHFIHsBkKh8PDw8MTObqRoIAnoihKOp12Op14vpSNS1WsSCGibE18An4eO37w9JF2QOdm/1d7vIAyh1CmXtUM6wwmS6lU6ujoeO211771rW/BoZ1IJJ5++ulIJDI4OHjttdd+7nOfK5VK+/fvX7Fixe7duxEifPHFFwcGBtrb27dt24Y+Bv39/atXr8ZciaDJjBWVTC126RHkbEG1HeEhu2YMirEzmQyqloaHh10ul9PpJjtDFEVFkVAGDAMFBVmKosiyKAiiz+ehbbo9qZkkB8d96PSfdgGYctlQFFmWRXQXopDERMAKd7lcWDX37Nnz61//GoVae/fu/eUvf9nc3NzX17dmzZq77rpLVdXt27f7/f5XXnklEokcPnz4hRde+PrXv37ttdfefvttr732Wk9Pz1NPPfXkk09qmuZ2e5ElM11PaEaA40RV1WQyGQwGZVlGVaa9lxYsGLzdyAmLRqPRaBSecrjl7Fs4bHRJOBSzuv3FPwtTD1+B9w47IuRgTd2d+Een7k0WjBKHw+HxeBKJBFLKzzA1BwKBWCzm8XjgLIVFDIcKDoBnDysl0t9gJtsjAlXTlt3GLxaLXq/X4YCnx6SUtNPbL/xsiaKE7TdyGKFpJknShRdeeNtttwUCAUVRFeLaXgAAIABJREFUotEovuLdd9/dsGEDVE+OHDmyZs2ap556CurdP/3pT5csWZJMJu+6666tW7e63e5EIrF48eLBwcHW1ta6CwSMC54m0irhLT/DwUhPgbAVGvym02lI3eCx2pV1SIgddsxp5eISTTpVarlYI+m7LBv0S0pngUSYvbTSXtczEXjE119//Y9//GOszXARYZysWrWqWCzCcnU6nSMjIwcOHGhra3v44YcjkUhvb+8111yzY8eO5ubm5ubmjo6ObDYLrTl8FKqu6gV7Q2ws3ujWbm/CQN0zSAkwGAy6XK6RkRHU7NCnoTEybZtRzUftlHW9DBuXDJozmCb25y7L1G7z705eVWWo2JVKaHMjuVwOu65dFUiFhpdIUZRLLrnkP/7jP4LBYH9//7Jly9Bq3jTNBQsWQHwBBlwul9u5c2dXV9dPfvKTc845p1wur1+/PpFI7N+/PxqNIl2XsmTqGkzFPp+P+kkhNxY+NnKNkKccMTVMoZlMBosCdJxJqQ+WLqkyUrX5B/GykI8fgWxq1v3hcHTVAnVvsmDIIj+cagfQwnfc4/v7+5FdjzXJ7/djCURQ3O5zxoRoV4gibyQpJVSpYQrCqdasoigKgilJqKA2Tgvsiujfi/9ZlmGalWw2i2wDLHKiKAYCgba2Nmi1UY4OfplMJlesWPGXv/zlm9/8ZiAQSKfTzz33XCQSaWho+OhHP/rDH/7wZz/72TXXXDNv3rx4PG7PSqtfMFVhp9LS0oLWwQ0NDRPNJoZhxONxVVXRpw0ZDPaHRdp99jodUhXDc6SiHnKW2NXx8UX2DFy7mipNozRIKDOXvv3MlxwOhzGxOp3OZDKJ2iVBEGKxGObBXC63dOnSRCJx6623ZrNZl8v15JNPptPpjo6OtWvXbt++Xdf1jRs3NjQ0wCDDphOaFtPwiKYdPAVkT1MjTOyMKZHI5XJR9+zjx48fO3YMUjF0xaJ46n8AEwXVBpOUHNW/2KM/VUbn37vTBPsPtlQYoVJBn2ETFoa9b9FY4BhG1hGW2+bmZghjxmKxaDSKsBcljDscjqVLl65bt27Tpk2WZT3xxBPpdHrhwoWXXXbZ7373O1EUb7vtNpjLw8PDoVDIvuOqR/AyhsNhXdchvkwSfGS8UjGjruuDg4ONjY0oLnM4HHiDkMyEv6Let9SunDyRVf3IJnuesFrwxLEJqdP3rjape5OFJEGhI5nNZi3LQpbluMcjh2vu3LnIikKTdEx5OIAUXDAV0vaadudVbf+qvCyQIIN9QwJlKM7E8faKA3g74ROWZTmXyx07dmxgYKC1tZX8lqje3LNnT6lUCofDS5Ysicfj3/3ud9evX9/X13fHHXe8+uqrxWJx/vz55XL5wQcffOmll0zTbGpqyufzXq+33nNZdF2HF8rpdDY1NQ0ODqZSqfb2dlQmj3v8oUOHFi1aBEVBTdM8Hg/1GLJLv5Nipl3klGoR7VXHVHY7UbEiAgeUAUMVnmQqje0UMxGWZWWz2b1799JiDG9KY2Ojqqr9/f3Yuq1du/af//mflyxZ8pGPfGTz5s1vv/32hg0bisXiBRdc8PnPf96yrG9/+9sYe/D0wGU4UWOjGmRsBA1LvmmayGZArjoqVF0uF0I8eFmy2WxnZ2dPT8/o6GgodKpjNt4D0zz1OiCDnsq8Ydzouo44jl2tv0q53/7KC4Igin+3K4AvBy0SdV1XVQUZo5gwzrByqaqK2DSMjIGBgdHR0Ugk4nA48C5DhCYWi2GQ33DDDeecc87cuXN7e3ufffbZbdu2XX311aVSae3atTfffLMoil/60pdwJJK1p/jxzDjwpWFfGovFHA5HS0sLKTKTyQIvKQrLOzs7EUCEQAO6ItC6QM28YNOTZvQHLHLGNgkrRbFYRFUHQtLTc2P+4ahFkwVxSjT3oZ0rVpd0Oh2JRCAVjzXe5/NRpHDOnDloQ3Po0KFwOAzjGrMSMmqLxWJTUxMycNGKyD4o8WkQZYEVj+JAUlSEeVS1aI2dW0VRcLlOHaOqp85NkhQkkAmCVCyW/H6/qjoN49RaCLnVaDT62GOPIVsil8uhgiCbzYbD4fvuuy8ej3d1dXV3dz/55JPPP//8D37wgzlz5vzpT39avnw58ue/+MUvXn311XPnzq0q/BsZGYE0LeWW4gba/dvkS5huEweXUyqVyuWy2+1GFAY7ZkVRCoUCWkHhocNeoY5ogiDMnz9/ZGTknXfeiUQiqASBWanrOlorFIvF3t5e6Edha47Px7fDkoD7CnktJDyIRDkcAAu1ykc19jcE2aCUYWMX/7V30ETbSFjY8BaYppnNZn0+XzabhVLn/PnzH3jggWw229DQ4PV6i8UiOrmce+65ixcvHhoaamlpWbly5bZt237zm9/s3r174cKFN998M3pmNTY2Pvfcc0NDQ4gtiqKIBnJQ78BXQN4eKatQCD2zA2BKgD1nz5Ekpyb6gqEMG2MeT58OpkxbRVHmz5+fOo3f74eODgYwRJVkWW5paYECXigUkiQBT/l0Ix7xtMqAWSoVBcGUJEEUUflVgb0ytr1R1c05c0IS/drv91YFjDB80HwHSVSIc8GspFaCvb293/ve9wqFQmtrK1xHXq83m8329PTMnz8/mUyi0c+OHTuef/75l156afHixY8//jhUFiORpl//+jf5fD4SaRIESdN0vGi457quqapsWVaxWBBFS5IEyzqV4QTTjZqcnyHDfUpAVC6fz8NWoyQeVVUzmQy6Q5PWsz1DBXoEmUzmyJEjLpcL4xy7jmw2m81m8WovWLAAX4ThAdc7ZntIeeHnfD7v9/vhgKSFxj4lTva6yDTBzfR6vSQSyEwJNXcrT0eIZXIII0OKFPRpLwUpWPyTLb1OCQQCqqqOjIzgA2mPS32zyHdChjb+0K4jmU6nISKHzyftVKpQmKz1TZrx2KnjqyHyHQgE4ONpb29vaWmBWhrSZi3L8vv9CxcubG1tRU2BaZoLFy5csGABvVG0k165cmWlUoH6KhZF8hZAYZOaFlHGIu1OyPcwPU/1b0C1FuslZTFTG0V6jrjt8E6N+3yh/EaC/dQUpqWlxev14unYu13atVXszaEofEOPafoWbxrP0A1TFCUYDKJSjCY7VVXnz59fqVQwAChOoarqkiVLkLOF2fDiiy9evnw5JmJqStXc3Hz55Zfblxz8DBU1GOskJOr1ev1+P1aC6ZZsQeCDpKip4A5vBCwzj8czMjLi8XiQaFIVqEUsz+FwYK+saRqEifFPCII4nU5o6tDCg9JWen/pHa9UKlXpSpQ0M633AZMbdv/Y/zgcDpiSOMDv95977rnYnUOzH8MD84AkSbDqBEFYtWrVRRddpOs6vewY82vWrMHabxgGjGCIBafTadp6YYqD5CAVXmEhxzQ73bkX2JjBmEYnBL/fHw6H9+/fDxVjDFHII9EpYZcSDAYhS4H+CTQDYFsL+UeSbKmS0sFUiWpB7I7Qj6xqALCSSs1SiyYLeTIoV79YLMK9qWkaNsRIwyTfOwHF6FAoFIlEMNAx9+H3Y9NR7eFMuxgdphLkbGKiJPfj2bXJJcEP2Pj4ukwmgyzgQqGAEAAdTP3wfD4fzCyqhCK3Qblcxh96vV5qt4HlATMCSYzgRpGqrK7rSAehTDHK0pjuqQrdgtAzQdM0VGxhrsTdxr4Hiw320PY/p+eL5ouoaMXzhRCtveEO5SIgsRGeBmqSTMshDbZxS4E++PVWfTiSk7xeL4rbqQUjZlLUr9FfYUhgDCMBmSoRINFLgUuYpKRYQ+LusIaxp4dQHqxzlPHDaszn89Mt3UE2JdV749XDEIWNArFEXdf9fr+9hsveeQOLt8/ng6Ctrus0biFFXeWBJ7+XPQWNMqmpy89Mmiz2Xs1utxvhbOqjhDIxv9+Pm4PWE6Zput1u9DujWmgs59SjlKpdqPu3XUEYzgxFUcg+hkGAYYMjKfR2ZjXOKQEJxdg9wt2IE/D7/XiCtOOCHUb7TOShI9aJ1g3Y1WDGRpnn2AYmVdlIkMNGTjpMlnEdKmy41CA1Z7Jg4qAXhvIZYZjn8/lUKgX1Urj0ad9sr0BGoATLmD1fkrSGTjcfEe2rGmbtWCxWLBbD4TCa7vp8vtHRUfJkfhAbHJYQVhTMQdAOxwKDCRSeUlR52GdYyqPEf8JZIkkSpjbUTGH2IUEkLOQDAwOmaXo8HtxGNChIJBIk2YLlnJaQ6c4Uw2yCNMN4PI4mIJCHcrlciUQC+2yYXCQ5P/b5Yg3G8k9LGj1KypLG12F9ggcehg6t3DD1cG7T5GKxO9gw/xaLxWg0ipFGPYphceq6DrsE20RyDyBqgCGEFCUYrORPInuXMm8gY4M7ico4VEng1UDLHrfbDY3E6Q4EkGOPTBC8TcPDw1gp4QODuwVmBJZSquAg9xvCiEilpIbM+D1pt1CzTKTMk/gYQpNoggN/FXY++IoZ8DKS15NeSWyH4G2FoitsFNRF4wAs2GScYQdCsTZ7XA/mC45BBwPk/aCtI8lGI4UObQsxruCIpZdouscD3YF4PJ7JZEKhEAI0Pp8PhZ9NTU3ofQj7HkMUZ4XZErY4esyRDxU2KK0LdjCTYKrJ5XK4pSQZV2Ui13sK4IeYWjRZKPiCTmyYjFBZg3kWJTZj7WJ7ohz8pXa3P6VPVukuAAxx+M8R+MSmJxQKUQcT1PVgfJ/d1cGcR56dx+MpFot79+5dsGABmuZQDgQ1SacNEzk/7dtBCkLDrWIvrqMJbmRkBCUn+FLUUqXTaWhUU/tle8XgWT65/x1o0IM5GtUuWKVgskAIh6zSqr+1P19KiLaLZ9C20j6J27UW0FKkUqnAJYN1nZ4mxSCmsNIKT8peLK2qKlp/w5AKBoPxeBw9kCE4Qadtf9bwDGHiph6ZeND2eAeZR0gAwhgeGRnBiEJzXYqo5vN5HAYTeaoueVzIKqLm5HAzoJkXCvg1TQuFQul0enBwEO0y7LeR5AzoydpdL/SZ9lgnPGrQI6Z+3ZlMJh6PNzU1IZWKwmozU2GH15bSWTBifT7fkSNHuru7yceASQbnQ5ouNJCoCMVuylOkiUxwqpSxLOvQoUOiKDY1NeE3wWAwFosdPnwYnbOwhaBRNANtVqlpGsQdEKCEQkQikUgmkwgAIQhIJikGPD4B9jd1YqfbiyFR1badDkCHS03TIHqOuQKLBftU6oKaM1lotCHpDKqdSPnGFiGdTg8MDLjdbhguVKlIFaT0VuPT7C5B+3pAKx9eVLRvRSYg0nLx/pA0LS0JZ11kj70R1BRw8mj/kUqlkJTqcrkgeQTRcafTCdcxCVFAs4GiA9ggYsNBgkUk7ZrL5fAhUJ2ByULei4GBAbQaRuUF7sMUdgCeCPRMRqAa6aIQ1IE5FQ6HR0ZG4H1BHASnN/b50iOwJ6bQt/yt5dPpVo7IyxsdHSWBB6fTqWka1n57UGBq74C9ugT/73K5kIGBB+3xeILBYDabjcVi6XS6tbWV9FUpbEH5B/hMew32WOE7FAqRKCKSUj0eTygUwguFu4qoHGURTbfkoP0JIpMAiQgYn9gWQ9oYtmwsFsPARsskevS4LXisFNCsqvUgZyR54LA6FgoFGMfwZ0ADHjt1e8/w6QaGIwpY8Fb6/X4s3giXwFEKI88+4KkpxGnRhFNhdFhyiJ6Ql5H6WmQymXQ6bZommqnh1sGVm8vlBgcH0dgVEyZ5Xqf7JlAPWthYEDHChYuimMlkIKgfDofRuxS2Bf6Wav3oVGknSR47epT4J9rCxWKxRCLhdrsjkQjyYDB4qqZ0drTULLVostDoaWhoGB4eRtogVmW0xUIMG4l19FdVGxGqW6PgAv7Vns5CbmdSo0IMBVEn2EwjIyOSJOHNoY34WVwUZhls+HK5HCJWqqp2dnbG4/Hh4WGEY1EHgQIBhJ/RIhhxaLhJsWXECcNtg8wPGHAI8VK6YjgcxmtM8zhyGqirrf11tRfXTB8kOQqjhJz2iImEw+HR0dFsNotaCTI9q56vfYtZtSLae0GTTD5C1zSEEMVHEAozJtUnn0Vl4xmwm0Ewdj0eDxwtqIlDcgZi6jBeqcs3gobwpmiaRiKHyPxIp9OVSgUVsCQshNXX4/GUSqWRkRFqAgf9IeT84qwQU4PFDHt9qi55ovtAKd5IMkP4pqurCyeDiJVlWQ0NDZqmDQwMwDqnIAg+x54bZN8Z0ypL9o1deBTRQBhGSDqG4Y7xDyHsD+I9/d8DcZGBgQHUapEgEPqiJ5NJBLMwTigNFiOHOiTDEPF6vTC80NMYYwNqewgIQukbZbdQeYEnBm8Eukb39/cjeISZZOxbNk2gNgqPGGl2mCGh1Ixk4cHBQZRBkEAoPHPUOB0XTm86bh39TDO8vfeQLMtIi3Q6nUjfzuVy0Wh07CWz06U2qTmThfY6yDfEYmzv5Nna2orGgdiowUdaJfCFz7EnitNkR3kb9lACXvuWlhZ4I2gnZxjG6OgoNKyozdDZpelhscQKlMlkKABRLpdbW1tRF4A9hyRJx44dg68el4mTgR8b1bD0YlMpEPo2I28OicZ+vx+zHq4IW3NsK1VVXb58eSaTSSaTiFDQzDjdlSOwTuBkQt0H/Bwul2toaAi7HxhnqHOxW5Zjq0/HdnBFCA/XSNLDANkPCIeZpplMJgcGBrq7uxEsoxIV8rRP4VXTYIOjy+l0Hj16tLe3F8oi8PogKg+HU6FQwNSMzkqpVAoWPHJO8chM0wyFQtiMojgfljd21ViGEV/DHaY8D4xkJKtieSuVSrAjpw+MWKwosNICgQAyKpLJpNfrLRQKXq83n8+jLxKyOorFImQ2qCQEI9wu046nhshXVahXkqR0Oo1NOXJa4cOgAQYrGabAzOh9QZE5Fovlcjm04qNEPYpo4HFomgYfjL28CKYYzhmDAQdgiyXLcjKZxGDDso1cdb/fj0mABEIQiVMUZcGCBRCAwDxDr8AM3IpQKBQIBJC4g+0ZHOqyLIfD4XA4jJGM2CXcgXAh40LgCCeNPjJZkKCGwUBdwHAMiEajkDkwDCObzebzedjNM3DJzAdHrLUeNOl0mpx1SC6BK6+7u9uutk7xoIkmmslumOzJuUhMQ2ClpaUFbo9xRaX+91AyimEYyWQyHo9j2YACAWUXnnUG6ESzzEQ+3onuz1RtNCd6LpNdGKbK60NlBbIsZzKZ0dFRxPvmzZs3JZ8/Wfbt2wcrtqGhgXpHnOF6J/tcJmt6Trd3bbLjYarGJ+22SS0QK/rBgwe9Xm8oFAoGgwg+2ksCpw9sVAqFAtJOVVUNhUI+n2+i+zDZ5zLZeWAih+J0L+HTPT4nup/kXctkMoibNzY2hsPhqbpeCq/fd999giDcc889lF5mP8zuISbBXDjVsAmnonemiprzspBrlzrLIN1haGgI/1qVcDBVUxsJYJBhpCgKyikphQ0b8bOLGth3Qj6fr1QqaZoGhwq5uD9IxcpUbYym8NWdks+fqvOh/kQYGLIsNzQ0QHFuVujo6Ein0+l0+sSJE7hXqqoie2nc4yc7nic7HmaguHdKjp/sfaCl2p5OJAhCa2srRG7s+bwz4F1A+Mnj8SDWnMvl+vv7ITow7vFnIRg/JedZa+Nhsucz0fwDTzaEFbAXJW2IGcOeqEC+T1StU1rxTJ5PfVGLJgt50WE6BAIBRG3taq2nJSwnHMpnsSslpyhSXpBAQzECyno5u4tCFBaJBS6Xq7GxEc5J5MOSsWLvejOpz5/sFDDR/ZmqKa/WTBY4k1Gwg1BgVavLGQamcDAYRJiGRtdULdW1ZrJM9PkTjZMpvw9VxSPBYBAvHWWnzYAoC50SUm6RYIQ86IkOZpMFTJXJEgqFqLsLBeNmLPO6qo80FGKQE015lvYSNmYsNWey0EOlGhY8S7ujrKpx7lR9b9Vmyz7HjU33myx2VWyoRWFcYuqckkuYFBNNGR/imC4lu+A/8SxmS0sbORl2XX/KrJqV85luZmu8ncEQoVDRTAqeksIsFQHBlfshfu9qDcoqIw8HFBZm8hzoccPHA2OlWCySmtRMnkx9UXMmC/kb7HOcPSOyKnoyVfV4pMhJbSao7r+qs/lZx7xRo1FV3UAzJl3pzGz4JnorZqC+cVzOsK5MyedTWQEKK2ZdhoHqkBEpQNr1FOriTPf9nCwTjbfJelkmy9jPtxfJz7xAuz24jAEJs2mijfU/WqntDIxbSmmi1kUztm8Zd2nLZDIoY4S9ghD2zJxPPVJzJkuVI5cm96oqx6qp54ODXBPyz5PoZFUKvX1bNimq5GtJCWq2DOqJpoAPq4GPIVQlTzeLTeGp7KXKPJ0ZB/XMM1WBnslyZlOpynKdAfuA4t30jdwzb4YZK+k0A19a1Q/ErmXs9XqRfosquWnS4P7QUHNvC+WpUBENfj/RzDKFDme7okNVMa1d8+PsPpxqaAG9NnYjyX5FUxjwGvf3tRarnoipOk+YjPYRNbv7V6oXoLUTA2+iBWy6cxpmK5dlZnIaql7ncU2lmRkPCAxBVAkuFhLgH/f4ep8HJmK6n/uZP59ePWK6e2zZZ3V7m0/Eg/r7+w8cOLBmzRosBGN74TFEzZks9hZ9YGwT8LET0AcHkkSkL2kPdlZ919k1JUesFMOUtlnj7vKndhKZrSmp1jYK5F+palszW+dD9rH9N1N4PrV2/ydiBs5z3G3P2FdvZna3mAHgxIV03gzfhBphtkxk+wxgn/Cn/PsFQRAEe8cJURDI0YLdr2AYxs6dO994443NmzcfOHBg69atF110kSzLEIdkxqXmTJYqZX36zbiHTeGX2kMGVYuH/Ys+oBe3KrXqwxoFqGVm11IhyPz9sEbiaoTp1h+aLFUzQK1ZEv8IjJ0BzmIwVNma5DQtFIq6rnvcvnQ6Gw41apo+PBTvntupFXSvz1kpC5IsxIZH3j+4/9DBI89u+dXJkyevuuqqO+64c9WqVaFQkGeD/y+1aLIwDMMwTM1CrShLpRIEeSGu3X/85I9//GNN09xu965du2798v6enp61a9euWnVBUascPHhw9+7dv/rVr955553Vq1cvXXKOx+O5+uqre3p6QqEgybFMd5Sqrpn97SbDMAzD1BHUsQhtTf1+PxrFd3Z2zpkzZ8uWLYcOHUKDbk3T2tvbf/azX3z6059es2bN008/vWHDhueee+7hhx++6qqrYrFYa2trKBREcgK6NMz2xdU07GVhGIZhmEmALtnQdJEkye12o7WkURHWr1+/c+dOJFZ3dHQMDQ2tX78+FAqtXbv2zjvvXLZsGWQtIbybSqUkSTIMq1wuV3UAZcaFTRaGYRiGmQSwVCCPrus6OuYWCgVZcgYCgba2tsOHD6N1fHt7+7XXXnvuuedGo1FUikmSFAx6LUs4fvw4DB3UuivKKWNlFsUXah82WRiGYRhmEiiKUigU0EcarpFUKnXw4MG+vr2/3PxMqVQ655xz+vr6PvWpT33+859XVTGb1ZxOWVVlSRJ03dC0sqqqTU1NSIVBjMkwjGKxSE3XmXFhk4VhGIZhJgHK1FVVLRQKb7/99t69e3ft2vXHP/5x5cqLPvPZTQsXLnz77bcfefQHn7v5M6pD1PWyP+A2TSGXz/l8PtUhl8umKFkOpwJ9S1VFoRDqyWQ2Wc4AmywMwzAMMwk0TTt69Og777yzbdu27du3d3V1bdiwYePGjb29S9raWlKpTCQSaWlpaWho0DTd6XRaliBJgqIooiiIouBwqIZh5nI5iMQYhmUYhiyLsiybpskZuGeATRaGYRiGGQdkxRqGUSqVXC6XKIp9fX2xWOyll146cODA0aNHP/nJT95yyy1Lly6tVCqhUMg0BcOwvF6v0+m89NJL8/m82+20LEHTih6Pi9QKDeNU/xAIfVmWpaqKphU8Hg9prDPjwiYLwzAMw4yDqqq5XE5RFKfT+dRTTx0/fnz79u2Dg4PnnXeeIAg/+tGPuru7A4EAUmgNwxAESZbFctkwTbO1tVVV1ULhlLFiWWiEaZ6WUBeo4ZGu6263G50RZ7G9fF3AMTOGYRiGGQfDMHw+nyRJf/3rX7/xjW/85S9/uf7663//+99fffXVx48fX7hwYSQSkWU5l8uhLx76ATidqihahUJO0/KiaJmm6XAogmCpqqwokiCYkiRYllUqFTVNk2XZ7XbDjqFeIrN93bULW3MMwzAMMw6yLBeLxVKptHTp0v/+7/+++OKLVVUtlUpNTU3Hjh07dOjQ4sWLVVVFmQ+0WEqlksPhKJfLQ0NDhULB7XajBNowDPQ7hD8GBc/Hjx8fGBhoaGgol8uiaHG50P8XvjsMwzAMMw7oHBQIBHw+3z/90z+JopjL5ZxOp8vl2rRpU3t7u6IosFEEQcjlcoZhQLVFluVLL720p6fHMAxI5VYqFTTFNE0Tev/Nzc2f/vSnw+EwMnPRzh01z7N93bWLGAgEZvsc/o50Oj3bp8AwDMMwAiRunU5nIpEIh8OlUqlUKnm9XlEUh4aGWlpaIICLaI6iKJVKxeFwZLNZj8djmmalUhFF0eVykfocrBmksBSLRcOwvF53uWzIMiRb9HK57PP5gsHgbF96jcKBIYZhGIYZB8uy4EFBKAc/67ouy3I4HM5ms36/X5ZlURSLxaIkSThAkiQ0aUdabi6Xg4iLKIpQjbMsq1AouFwul0vOZvOapvn9fqdTRRnRbF90TcOBIYZhGIYZB+SyFIvFpqYmRIXef//9kwNDeqmiOhyGKfSfGHjr7T1FvZzLa3173jFNIZ1Oe71eSZL+8Ic/HD16VBTF9957L51Ol8tlmD6WZWWz2ZMnTw4ODubzms/njUYb3W6nYRiSJKmqmslkZvu6axc2WRiGYRhmHCyz4nY5XE41k04qipJKpb597313fu3rQ/GRgl7xBPwvvfLnhx75kW7Jr77+1p1f/z+x+GgwGMzntXh89Dvf+e7eve9WKuYPf/jos8/+2uFwVCqmJCmVimmawn33fefDhugWAAAGuElEQVTFF1/yeFyCYOm6bpqmqqqyLFcqlVrL1qgp2GRhGIZhmHFAWEcQxUAwqGmaKViyrO7evftPr2yXZKVUEQxLXLCoN68VK5Ykq06EdeCPaWtrk2VZ1/VisdjY2Kjr5dNtiWRFURRFQRKuZVmoJIJgHRJ1Z/u6axc2WRiGYRhmHGRFEQTBNAwYIk6nMxKJXHzxxZs3b3799ddN04pEIgcOHPD5PIV8trExLAiCpunlcjkSiQwMDECsxev1CoLgcKg+n09RJF0vIxtGUZRyuaxpGtJfYMHA1zLb1127sMnCMAzDMONhWV6v17Ksoqa5XC5dK6bTyZtvvvmKyy5/+OGHK6VSLBYLN4QsS3A6ndls1uFwuN3OYNCvqqrb7YZMiyiKo6OjoihIklAoFJHUclqnX1VVFVosVNtcKBRm9ZprGjZZGIZhGGYcYHDIisPhdCNtdmBgQFGkG2+6YWhocOvW/6uoUmNj2KxUynox6PfGYjFN0wVBeP/99yORCEV8UElUqZiGYfh8HofDAWW5UqlULpeLxSK5WARBgBguMy5ssjAMwzDMOMCqQOAGJc3RaDSbSquq+rnPfnbLli3v9O2JDQ15PYqmafv27fP5fG63UxAEl8v1hz/8oVKpwP5QVdUwLEWRZFk2TSEWi2mahoJnr9frcDhEUVQUxTRNTdNYAPcM8K1hGIZhmHEQJUkURYRyZFlGp2Wv19sYaVi/fn1nR/tDD30/EgkVtfLiRQve2bN33759qVRmeDi+b9++SqXS2NgIV02pVIrFYul0dnh4OJ1Ot7W1LV26NJ/Px+Px0dHRQ4cOHTt2DIZRsViEhC4zLiwlxzAMwzDjUNJ1h9NZLhvlctnr9Z48eXLHjh0bN24s6pVwKHDNNdc88sgjulZMJpPLli2746u3X3HFZbd95SsOh+ORRx65/fbbly1bJoqiw+F46KGHXnzxRUEQRkdHL7300uuvv/7YsWOPP/74n/70R0EQMpnMkiVLbr311q6uLqfTyem3Z4AF+xmGYRhmHEzTFEURPZZ1Xc/n8/lCUdf1OXPmqKqaz+ePneiXJGXOnDkul0PT9L4330iMjpZKpba2tt7e3lCoIZlMDQ4O5vN5fJogCD6fz+fz6bqeSqVMswIJ/2Aw2NzcHAwGIc3S1NQ025deo7DJwjAMwzDjABl+6gpkmqZhCujYLMuiaQr5fF4URY/PI1pCuVxRZLlSqaAUSJZFQRBMU4DOiizL6ImoqqokCZYlFAqa06miVyLU/UVRRLpuOBye7UuvUTgwxDAMwzDjQB1/4CARRVGRBUGWkeAiiqLf5xFFsWIaRsVSFcUwDIdDFUXBNIVisYSyIIdDKZcNWRZlWTZN2bIs0xQFQXA4HLIsKcqpVRi2Dpw6s3rRNQ2bLAzDMAwzDrAe4B2BPYHfw86AkoplWWbFEEVRkgTDEMrlCv7wtObKqU8wDEmWRVEUTNM6Zf0ocqmkK4qCRon4ZEmSuGLoDLDJwjAMwzDjYBgG3B4IDEFf37IsxHdOGTGW4VBlQRAE01IU2bIEy7IQFUJgyDBMVVVFUbAsQRQFWf6bRUJeHBQ5kw00O1dbD7DJwjAMwzDjAMV9e6TGsizDMAzDcLlcSMsVLFOSZUEQSqWiKDlEUTytZisYxinfjCQJhmGd/hm+FsEwDFkWkcuCv8IHcpHzGai59FuGYRiGYZixcMyMYRiGYZg6gE0WhmEYhmHqADZZGIZhGIapA9hkYRiGYRimDmCThWEYhmGYOoBNFoZhGIZh6gA2WRiGYRiGqQPYZGEYhmEYpg5gk4VhGIZhmDqATRaGYRiGYeoANlkYhmEYhqkD2GRhGIZhGKYOYJOFYRiGYZg6gE0WhmEYhmHqADZZGIZhGIapA9hkYRiGYRimDmCThWEYhmGYOoBNFoZhGIZh6gA2WRiGYRiGqQPYZGEYhmEYpg5gk4VhGIZhmDqATRaGYRiGYeoANlkYhmEYhqkD2GRhGIZhGKYOYJOFYRiGYZg6gE0WhmEYhmHqADZZGIZhGIapA9hkYRiGYRimDmCThWEYhmGYOoBNFoZhGIZh6gA2WRiGYRiGqQPYZGEYhmEYpg5gk4VhGIZhmDqATRaGYRiGYeoANlkYhmEYhqkD2GRhGIZhGKYOYJOFYRiGYZg6gE0WhmEYhmHqADZZGIZhGIapA9hkYRiGYRimDmCThWEYhmGYOoBNFoZhGIZh6gA2WRiGYRiGqQPYZGEYhmEYpg5gk4VhGIZhmDqATRaGYRiGYeoANlkYhmEYhqkD2GRhGIZhGKYO+H+djyoob2DzegAAAABJRU5ErkJggg==;" vertex="1" parent="1">
                    <mxGeometry x="-60" y="100" width="932.05" height="288.58" as="geometry"/>
                </mxCell>
            </root>
        </mxGraphModel>
    </diagram>
</mxfile>